<svg width="40" height="38" viewBox="0 0 40 38" fill="none" xmlns="http://www.w3.org/2000/svg">
<g id="Group 81">
<path id="Vector" d="M2.83257 26.042C2.86984 26.1263 2.91197 26.204 2.95734 26.2818C2.97841 26.3272 3.00758 26.3742 3.0335 26.4163C3.07563 26.5006 3.121 26.5816 3.16475 26.6626L3.41916 27.0904C3.46615 27.1698 3.51152 27.2476 3.56499 27.3253C3.65411 27.4777 3.75944 27.6267 3.8518 27.7791C3.89393 27.8422 3.93282 27.9054 3.97981 27.9686C4.15805 28.2457 4.32009 28.4758 4.49347 28.6994C4.61662 28.8663 4.73977 29.03 4.87264 29.1936C4.91639 29.2552 4.965 29.3168 5.01038 29.3784L5.36848 29.8126C5.41223 29.8629 5.45598 29.9212 5.50297 29.9731C5.66177 30.1643 5.83029 30.349 5.99881 30.5369C5.99881 30.5402 6.00367 30.5434 6.00691 30.5483C6.21594 30.8108 6.44118 31.0441 6.68748 31.2515L6.69396 31.258C6.82359 31.3909 6.95322 31.5221 7.09095 31.6518L7.25461 31.8089C7.43448 31.9775 7.61434 32.1444 7.80392 32.3064C7.80716 32.3064 7.80878 32.3096 7.81203 32.3113L7.90439 32.3923C8.06967 32.5365 8.23657 32.6791 8.40671 32.812L8.60926 32.9821C8.74699 33.0923 8.88958 33.196 9.03056 33.3046L9.25093 33.4731C9.40163 33.5865 9.56204 33.6967 9.71598 33.8069C9.77269 33.8474 9.82941 33.8879 9.88774 33.9252L9.93473 33.9624L10.3901 34.2606L10.5845 34.3902C10.8227 34.5425 11.0593 34.6851 11.2959 34.8277C11.3639 34.8618 11.432 34.899 11.4952 34.9379C11.6702 35.0384 11.8517 35.1405 12.0283 35.2328C12.1255 35.2879 12.226 35.3349 12.3264 35.3851C12.448 35.4532 12.5743 35.5196 12.704 35.5877C12.7396 35.599 12.7688 35.6104 12.798 35.6266L12.8044 35.6201C12.8579 35.6444 12.9081 35.6703 12.96 35.6963C13.1544 35.7935 13.357 35.8858 13.5676 35.9766C13.6065 35.9928 13.6487 36.009 13.6908 36.0317C13.9241 36.1338 14.1575 36.231 14.3989 36.325C14.454 36.3412 14.5123 36.3687 14.569 36.3898C14.7878 36.4724 15.013 36.5567 15.2366 36.6361L15.3177 36.6652C15.5656 36.7495 15.8103 36.8305 16.063 36.9067C16.1214 36.9229 16.1813 36.9439 16.2429 36.9602C16.5005 37.0379 16.7501 37.1303 17.011 37.1789C33.6572 40.1977 38.4941 27.22 38.4941 27.22C34.4301 32.4863 27.2178 33.8749 20.3879 32.3291C20.1351 32.2708 19.8823 32.1897 19.6263 32.1152C19.2649 32.0129 18.9066 31.9 18.552 31.7765L18.7059 31.8235L18.6054 31.7846C18.3851 31.7101 18.1728 31.6275 17.9573 31.5448C17.9045 31.5225 17.851 31.5019 17.7969 31.4833L17.779 31.4784C17.5408 31.3828 17.3091 31.2856 17.079 31.1835C17.0288 31.1673 16.9867 31.1446 16.9364 31.1251C16.6639 31.0064 16.3938 30.8821 16.1262 30.7525L16.3498 30.8513C16.2915 30.8255 16.2342 30.7974 16.1781 30.767C16.0258 30.6957 15.8735 30.6147 15.7244 30.5386C15.6108 30.4848 15.499 30.4275 15.389 30.3668L15.4214 30.383C15.2383 30.2858 15.0552 30.1805 14.8704 30.0816C14.8153 30.0427 14.7521 30.0103 14.689 29.9747C14.4144 29.8151 14.1432 29.6498 13.8755 29.4788L13.9776 29.5404C13.909 29.498 13.842 29.4532 13.7767 29.4059L13.7864 29.4124C13.6122 29.3054 13.4415 29.193 13.2744 29.0754C13.2193 29.0397 13.169 29.0008 13.1123 28.9619C12.9377 28.8428 12.7659 28.7196 12.597 28.5925L12.6359 28.62C12.5679 28.5649 12.4949 28.5131 12.422 28.4596C12.2794 28.3478 12.1352 28.2409 11.9926 28.1242L11.8014 27.9719C11.5976 27.8097 11.3977 27.6428 11.2019 27.4712L11.2003 27.4696L10.638 26.9591L10.4759 26.8068C10.3431 26.6723 10.207 26.5443 10.0708 26.4114L9.91367 26.2494C9.7459 26.0833 9.5822 25.9131 9.42269 25.739L9.41297 25.7276L9.38542 25.705C9.21385 25.5165 9.04478 25.3259 8.87824 25.133C8.83449 25.0827 8.79398 25.0293 8.74861 24.9758L8.38078 24.5302C8.21497 24.3219 8.05291 24.1107 7.89467 23.8966L7.82985 23.8059C4.04138 18.6595 2.67054 11.5574 5.70228 5.73047L3.0254 9.11545C-0.417923 14.0398 0.00823924 20.4436 2.64137 25.6726C2.70132 25.8006 2.76776 25.9205 2.83257 26.042V26.042Z" fill="#1266A9"/>
<path id="Vector_2" d="M14.4309 18.9477L14.413 18.9218L14.3984 18.9023L14.4309 18.9477Z" fill="black"/>
<path id="Vector_3" d="M16.2383 21.0734L16.3841 21.2192C16.5688 21.3975 16.7584 21.5708 16.9512 21.7442L16.9755 21.7653C17.17 21.937 17.3887 22.1169 17.614 22.2919L17.648 22.3178C17.7031 22.3551 17.7501 22.3989 17.8035 22.4361C18.0304 22.6111 18.2589 22.778 18.4971 22.9449L18.5214 22.9595C18.6218 23.0324 18.7288 23.0989 18.8422 23.1702C18.8876 23.1993 18.9394 23.2382 18.988 23.2674C19.1598 23.3776 19.3283 23.4797 19.5017 23.585C19.5293 23.5963 19.5536 23.6109 19.5795 23.6222C19.7253 23.7114 19.8841 23.7973 20.0364 23.875C20.0899 23.9074 20.1418 23.9317 20.1969 23.9625C20.3054 24.016 20.4124 24.0727 20.5161 24.1278L20.5679 24.1505C20.7867 24.2574 21.0103 24.3579 21.229 24.4567C21.2841 24.4778 21.3311 24.4956 21.3781 24.5183C21.558 24.5961 21.7411 24.6706 21.9209 24.7387C22.002 24.7662 22.0781 24.7987 22.1543 24.823C22.3196 24.8845 22.4929 24.9412 22.6566 24.998L22.8835 25.0709C23.12 25.1438 23.3598 25.2394 23.611 25.2783C36.4655 27.3945 39.4406 17.5474 39.4406 17.5474C36.7621 21.3829 31.5784 23.2107 26.0546 21.7831C25.7788 21.7136 25.5054 21.6352 25.2346 21.5482L25.327 21.5741C25.2492 21.553 25.1812 21.5287 25.1066 21.506C24.9381 21.4477 24.7647 21.391 24.6011 21.331L24.3677 21.2435C24.1862 21.1706 24.0015 21.1025 23.8249 21.0248C23.7698 21.0005 23.7196 20.9843 23.6774 20.96C23.4506 20.8579 23.2221 20.7574 23.0001 20.6505L22.6663 20.4771L22.4735 20.3799C22.3244 20.3021 22.1867 20.2211 22.0441 20.1384C22.0077 20.1213 21.9725 20.1018 21.9388 20.0801L21.9436 20.0817C21.7719 19.9748 21.5936 19.8711 21.4283 19.7625C21.3733 19.7317 21.323 19.6944 21.2712 19.662L20.9341 19.4433C20.7008 19.2812 20.4723 19.1079 20.2406 18.9393C20.1888 18.8923 20.1385 18.8535 20.0883 18.8113C17.6593 16.9106 15.744 14.3131 14.835 11.3721C13.8773 8.31446 14.088 4.88572 15.7424 2.10352L13.7088 4.96836C11.2118 8.53483 11.3528 13.302 13.2973 17.0743C13.6521 17.771 14.0118 18.3592 14.4088 18.9199C14.7783 19.4481 15.1866 20.0671 15.6792 20.4917C15.8542 20.691 16.0422 20.8806 16.2383 21.0734V21.0734Z" fill="#1266A9"/>
<path id="Vector_4" d="M4.5022 28.7095L4.49572 28.6997L4.48438 28.6852L4.5022 28.7095ZM11.2398 27.5039L11.256 27.5152L11.2592 27.5201L11.2398 27.5039Z" fill="black"/>
<path id="Vector_5" d="M22.6986 1.86733C21.2256 4.01758 21.0847 6.68798 22.099 9.05861C23.1766 11.5767 25.3787 13.5536 27.9454 14.4901C28.0507 14.5306 28.1528 14.5647 28.2614 14.6036L28.4039 14.6473C28.553 14.6943 28.7037 14.7494 28.8577 14.7834C35.9566 16.1462 37.8784 11.157 38.3953 10.423C36.7052 12.8373 33.8711 13.4174 30.3938 12.5765C30.0914 12.5027 29.7938 12.4107 29.5026 12.301L29.556 12.3188C29.1937 12.1934 28.8388 12.0473 28.4931 11.8813L28.5546 11.9089C27.8903 11.5848 27.3199 11.2348 26.79 10.8329C23.6821 8.48337 21.7604 4.00948 23.7891 0.365234L22.6986 1.86733Z" fill="#1266A9"/>
</g>
</svg>
