<svg width="40" height="24" viewBox="0 0 40 24" fill="none" xmlns="http://www.w3.org/2000/svg">
<g id="Group 80">
<path id="Vector" d="M33.0938 7.5048C33.0331 6.16929 33.2152 4.98555 32.6082 3.98391C31.1512 1.49501 27.5089 0.0380859 20.2243 0.0380859V0.250554H20.0726H20.2243V0.0380859C12.9398 0.0380859 9.11534 1.49501 7.65842 4.01427C7.08173 5.04625 7.14243 6.19965 7.05137 7.53516C6.99067 8.59749 6.50503 9.72054 6.7175 10.9346C6.96032 12.513 7.05137 14.0913 7.29419 15.5482C7.47631 16.732 9.11534 17.7336 9.2671 18.8566C9.69204 21.9526 12.9094 23.3792 20.194 23.3792V23.622H20.0119H20.2243V23.3792C27.5089 23.3792 30.6049 21.9526 30.9995 18.8566C31.1512 17.7032 32.6689 16.732 32.851 15.5482C33.0938 14.0913 33.1848 12.513 33.4277 10.9346C33.6401 9.72054 33.1545 8.56714 33.0938 7.5048V7.5048Z" fill="#EFCCA3"/>
<path id="Vector_2" d="M20.1076 8.59766C21.4127 8.62801 22.3233 9.44753 23.1732 10.2063C24.1748 11.0866 25.8746 11.6936 26.5727 12.4524C27.2708 13.2112 28.1813 13.97 28.5152 15.1538C28.8491 16.3375 28.9402 17.8552 28.9402 18.2498C28.9402 18.6443 29.1526 18.5533 29.7597 18.2498C31.1862 17.5516 32.7646 15.6698 32.7646 15.6698C32.5825 16.8535 31.0345 17.9159 30.8827 19.0389C30.5185 22.1349 27.5136 23.6221 20.0772 23.6221H20.0469H20.229" fill="#CCAC8D"/>
<path id="Vector_3" d="M24.903 6.23006C25.1762 7.17099 26.1475 10.358 24.2656 9.29566C24.2656 9.29566 25.0548 9.75095 25.5404 11.481C26.0564 13.2111 27.3009 13.4236 27.3009 13.4236C27.3009 13.4236 29.3345 13.8182 30.8521 12.513C32.1269 11.4203 32.3394 9.47778 31.793 7.99051C31.2467 6.53358 30.2754 6.0783 28.8488 5.77477C27.4223 5.4409 24.5691 5.16772 24.903 6.23006V6.23006Z" fill="#CCAC8D"/>
<path id="Vector_4" d="M28.5148 12.3616C29.9899 12.3616 31.1858 11.1657 31.1858 9.69056C31.1858 8.21539 29.9899 7.01953 28.5148 7.01953C27.0396 7.01953 25.8438 8.21539 25.8438 9.69056C25.8438 11.1657 27.0396 12.3616 28.5148 12.3616Z" fill="black"/>
<path id="Vector_5" d="M27.8153 9.2048C28.2009 9.2048 28.5135 8.89225 28.5135 8.50669C28.5135 8.12114 28.2009 7.80859 27.8153 7.80859C27.4298 7.80859 27.1172 8.12114 27.1172 8.50669C27.1172 8.89225 27.4298 9.2048 27.8153 9.2048Z" fill="white"/>
<path id="Vector_6" d="M24.4454 9.56836C24.4454 9.56836 26.8433 11.2074 28.1484 12.8161C29.4536 14.4247 29.4232 14.7283 29.4232 14.7283L28.4823 15.1532C28.4823 15.1532 27.1468 12.634 25.5077 11.693C23.8384 10.7521 23.6562 9.96294 23.6562 9.96294L24.4454 9.56836V9.56836Z" fill="#EFCCA3"/>
<path id="Vector_7" d="M20.1976 8.59766C18.8924 8.62801 17.9211 9.44753 17.0409 10.2063C16.0393 11.0866 14.2788 11.6936 13.5807 12.4524C12.8826 13.2112 11.9417 13.97 11.6078 15.1538C11.274 16.3375 11.1525 17.8552 11.1525 18.2498C11.1525 18.6443 11.2132 18.6747 10.333 18.2498C8.90646 17.582 7.32812 15.6698 7.32812 15.6698C7.51024 16.8535 9.05822 17.9159 9.20998 19.0389C9.63492 22.1349 12.6398 23.6221 20.0762 23.6221H20.2279" fill="#CCAC8D"/>
<path id="Vector_8" d="M27.239 13.7268C25.7821 11.936 23.445 10.2666 20.1972 10.2666H20.1669C16.9192 10.2666 14.582 11.936 13.1251 13.7268C11.6075 15.5783 11.7289 16.3067 11.7289 18.0672C11.7289 24.4412 13.975 22.6201 15.4622 23.4092C16.9799 24.168 18.5582 23.9252 20.1669 23.9252H20.1972C21.8363 23.9252 23.3843 24.1377 24.9019 23.3789C26.3892 22.62 28.6352 24.5019 28.6352 18.1279C28.6656 16.3674 28.7567 15.5783 27.239 13.7268V13.7268Z" fill="#56332B"/>
<path id="Vector_9" d="M20.0437 11.8457C20.0437 11.8457 19.8312 14.7899 19.4062 15.3666L20.1954 15.1845L20.0437 11.8457Z" fill="#442823"/>
<path id="Vector_10" d="M20.2533 11.8457C20.2533 11.8457 20.4658 14.7899 20.8907 15.3666L20.1016 15.1845L20.2533 11.8457Z" fill="#442823"/>
<path id="Vector_11" d="M17.7068 11.1474C17.4032 10.4493 18.4959 9.32625 20.226 9.2959C21.9561 9.2959 23.0488 10.4189 22.7453 11.1474C22.4418 11.8759 21.3491 12.0883 20.226 12.1187C19.1333 12.0883 18.0103 11.8759 17.7068 11.1474V11.1474Z" fill="#56332B"/>
<path id="Vector_12" d="M20.2265 11.8448C20.2265 11.7234 21.2585 11.6931 21.8048 11.3288C21.8048 11.3288 20.6818 11.6931 20.4389 11.5413C20.1961 11.4199 20.1354 11.0557 20.1354 11.0557C20.1354 11.0557 20.0444 11.4199 19.8623 11.5413C19.6498 11.6627 18.375 11.3288 18.375 11.3288C18.375 11.3288 20.0747 11.7538 20.0747 11.8448C20.0747 11.9359 20.0444 12.2394 20.0444 12.4519C20.0444 13.2107 20.0444 15.0925 20.1658 15.2443C20.3479 15.5175 20.2872 13.2107 20.2872 12.4519C20.2568 12.2091 20.2568 11.9662 20.2265 11.8448V11.8448Z" fill="black"/>
<path id="Vector_13" d="M20.2849 15.9125C20.8009 15.9125 21.7114 16.2768 22.5309 16.8534C21.7418 15.9732 20.8009 15.3662 20.2849 15.3662C19.7385 15.3662 18.5851 16.0339 17.7656 17.0052C18.6155 16.3375 19.7082 15.9125 20.2849 15.9125Z" fill="#7F4A41"/>
<path id="Vector_14" d="M20.0735 21.2846C18.9201 21.2846 17.7971 20.9204 16.7651 20.6472C16.5526 20.5865 16.3401 20.7383 16.1277 20.6776C14.2155 20.0705 12.6675 19.0385 11.7266 17.7334V18.0369C11.7266 24.411 13.9726 22.6202 15.4599 23.379C16.9775 24.1378 18.5559 23.895 20.1646 23.895H20.1949C21.8339 23.895 23.3819 24.1074 24.8995 23.3486C26.3868 22.5898 28.6329 24.4413 28.6329 18.0673C28.6329 17.8244 28.6329 17.5816 28.6633 17.3691C27.783 18.7957 26.1744 19.9188 24.1711 20.5865C23.989 20.6472 23.564 20.4955 23.3819 20.5258C22.2892 20.8901 21.318 21.2846 20.0735 21.2846V21.2846Z" fill="#442823"/>
<path id="Vector_15" d="M17.1909 17.8555C17.1909 17.8555 16.4321 20.1319 16.9481 21.1336L16.25 20.83C16.25 20.83 16.766 18.5232 17.1909 17.8555V17.8555ZM23.2007 17.8555C23.2007 17.8555 23.9595 20.1319 23.4435 21.1336L24.1417 20.83C24.1417 20.83 23.5953 18.5232 23.2007 17.8555Z" fill="#442823"/>
<path id="Vector_16" d="M15.2503 6.23006C14.9772 7.17099 14.0059 10.358 15.8878 9.29566C15.8878 9.29566 15.0986 9.75095 14.6129 11.481C14.1273 13.2111 12.8525 13.4236 12.8525 13.4236C12.8525 13.4236 10.8189 13.8182 9.30126 12.513C8.02645 11.4203 7.81399 9.47778 8.36033 7.99051C8.90668 6.50323 9.87796 6.0783 11.3045 5.77477C12.7311 5.4409 15.5539 5.16772 15.2503 6.23006V6.23006Z" fill="#CCAC8D"/>
<path id="Vector_17" d="M20.1964 15.3659C21.0159 15.3659 23.5655 17.1263 23.5958 19.2813V19.1599C23.5958 16.9138 21.5319 15.123 20.1964 15.123C18.8608 15.123 16.7969 16.9442 16.7969 19.1599V19.2813C16.8272 17.1263 19.3768 15.3659 20.1964 15.3659Z" fill="black"/>
<path id="Vector_18" d="M20.861 11.1638C20.9909 11.1303 21.0452 10.9058 20.9824 10.6623C20.9196 10.4188 20.7634 10.2486 20.6336 10.2821C20.5037 10.3156 20.4494 10.5402 20.5122 10.7836C20.575 11.0271 20.7312 11.1973 20.861 11.1638Z" fill="#331712"/>
<path id="Vector_19" d="M19.2981 11.1594C19.4261 11.1991 19.5904 11.0366 19.6649 10.7965C19.7394 10.5563 19.6959 10.3295 19.5679 10.2897C19.4398 10.25 19.2755 10.4125 19.201 10.6526C19.1265 10.8928 19.17 11.1197 19.2981 11.1594Z" fill="#331712"/>
<path id="Vector_20" d="M11.7882 12.3616C13.2634 12.3616 14.4592 11.1657 14.4592 9.69056C14.4592 8.21539 13.2634 7.01953 11.7882 7.01953C10.313 7.01953 9.11719 8.21539 9.11719 9.69056C9.11719 11.1657 10.313 12.3616 11.7882 12.3616Z" fill="black"/>
<path id="Vector_21" d="M12.4872 9.2048C12.8727 9.2048 13.1853 8.89225 13.1853 8.50669C13.1853 8.12114 12.8727 7.80859 12.4872 7.80859C12.1016 7.80859 11.7891 8.12114 11.7891 8.50669C11.7891 8.89225 12.1016 9.2048 12.4872 9.2048Z" fill="white"/>
<path id="Vector_22" d="M20.987 9.7207C20.987 9.69035 20.2889 10.0242 20.1068 10.0546C19.9247 10.0242 19.2266 9.69035 19.2266 9.7207H20.987Z" fill="#7F4A41"/>
<path id="Vector_23" d="M15.6732 9.56836C15.6732 9.56836 13.2753 11.2074 11.9702 12.8161C10.665 14.4247 10.6954 14.7283 10.6954 14.7283L11.6363 15.1532C11.6363 15.1532 12.9718 12.634 14.6108 11.693C16.2499 10.7521 16.4623 9.96294 16.4623 9.96294L15.6732 9.56836Z" fill="#EFCCA3"/>
<path id="Vector_24" d="M10.4219 4.71273C10.4219 4.71273 9.6024 6.95881 7.78125 7.89974C7.78125 7.89974 10.6344 7.56586 10.4219 4.71273ZM29.5744 4.71273C29.5744 4.71273 30.3939 6.95881 32.215 7.89974C32.215 7.89974 29.3619 7.56586 29.5744 4.71273ZM24.3841 8.90137C24.3841 8.90137 22.5933 7.01952 20.1954 6.95881H20.2258H20.2561C17.8279 7.01952 16.0675 8.90137 16.0675 8.90137C18.1618 7.44445 19.9526 7.47481 20.2561 7.47481C20.2258 7.47481 22.2897 7.44445 24.3841 8.90137V8.90137ZM22.2897 4.95555C22.2897 4.95555 21.3792 3.68074 20.1651 3.65039H20.2258C19.3152 3.68074 18.1315 4.95555 18.1315 4.95555C19.1634 3.95392 20.2258 3.98427 20.2258 3.98427C20.2258 3.98427 21.2274 3.95392 22.2897 4.95555ZM11.7878 14.2738C11.7878 14.2738 10.3612 14.9719 9.32923 14.5469H9.29888C8.3883 14.0309 7.93301 12.483 7.93301 12.483C7.93301 12.483 8.84359 15.2147 11.7878 14.2738V14.2738ZM28.421 14.2738C28.421 14.2738 29.8475 14.9719 30.8795 14.5469C32.0936 14.0309 32.2757 12.483 32.2757 12.483C32.2757 12.483 31.3651 15.2147 28.421 14.2738V14.2738Z" fill="#CCAC8D"/>
<path id="Vector_25" d="M13.431 4.56051C14.2201 4.40875 15.5253 4.37839 16.5573 4.71227C17.8624 5.16756 16.8001 6.83695 17.0733 6.928C17.3465 7.01906 17.7107 5.77461 20.1389 5.89602C22.5974 6.01743 22.8706 7.11012 23.2045 6.928C23.5384 6.74589 22.8706 3.89275 26.5433 4.56051C26.5433 4.56051 22.6885 3.52852 22.8706 6.32095C22.8706 6.32095 20.6549 4.62121 17.5589 6.13884C17.5893 6.13884 18.3784 3.52852 13.431 4.56051V4.56051ZM26.8771 4.56051C26.9378 4.56051 26.9682 4.59086 26.9986 4.59086C27.0289 4.59086 26.9682 4.56051 26.8771 4.56051ZM12.3686 0.827148C12.3686 0.827148 9.09057 4.95509 8.60493 6.53342C8.11929 8.1421 7.75506 14.7286 7.33013 15.6695L5.8125 9.17409L8.60493 2.40548L12.3686 0.827148V0.827148ZM27.7877 0.827148C27.7877 0.827148 31.0658 4.95509 31.5514 6.53342C32.0371 8.1421 32.4013 14.7286 32.8262 15.6695L34.3439 9.17409L31.5514 2.40548L27.7877 0.827148V0.827148Z" fill="#CCAC8D"/>
<path id="Vector_26" d="M27.6356 0.827225C27.6356 0.827225 31.1565 3.77142 32.1885 7.1709C33.2205 10.5704 32.7955 14.6983 33.5847 15.2143C34.7077 15.9428 35.9826 11.6024 36.4075 11.1471C37.0752 10.4186 39.291 8.56711 39.4428 8.23324C39.5945 7.89936 34.9506 2.83049 32.9169 1.82886C30.4584 0.675463 27.4231 0.584405 27.6356 0.827225V0.827225Z" fill="#56332B"/>
<path id="Vector_27" d="M30.6406 2.64844C30.6406 2.64844 34.7989 7.96011 34.7382 14.5769L36.4076 11.1775C36.3772 11.1775 34.9203 6.83707 30.6406 2.64844V2.64844Z" fill="#442823"/>
<path id="Vector_28" d="M12.3654 0.827225C12.3654 0.827225 8.84456 3.77142 7.81257 7.1709C6.78058 10.5704 7.20552 14.6983 6.41635 15.2143C5.29331 15.9428 4.01851 11.6024 3.59357 11.1471C2.92582 10.4186 0.710082 8.56711 0.558319 8.23324C0.406557 7.89936 5.05049 2.83049 7.08411 1.82886C9.54266 0.675463 12.5779 0.584405 12.3654 0.827225V0.827225Z" fill="#56332B"/>
<path id="Vector_29" d="M9.36164 2.64844C9.36164 2.64844 5.20333 7.96011 5.26404 14.5769L3.625 11.1775C3.625 11.1775 5.08192 6.83707 9.36164 2.64844Z" fill="#442823"/>
<path id="Vector_30" d="M7.11719 14.6978C7.11719 14.6978 7.42071 16.3369 7.90635 16.8529C8.39199 17.3689 8.05812 16.4583 8.05812 16.4583C8.05812 16.4583 7.54212 16.1851 7.63318 14.0908C7.72424 11.9965 7.11719 14.6978 7.11719 14.6978V14.6978ZM33.0079 14.6978C33.0079 14.6978 32.7043 16.3369 32.2187 16.8529C31.7331 17.3689 32.0669 16.4583 32.0669 16.4583C32.0669 16.4583 32.5829 16.1851 32.4919 14.0908C32.4008 11.9965 33.0079 14.6978 33.0079 14.6978V14.6978Z" fill="#CCAC8D"/>
<g id="Group">
<path id="Vector_31" d="M17.0397 13.6966C17.1738 13.6966 17.2825 13.5879 17.2825 13.4538C17.2825 13.3197 17.1738 13.2109 17.0397 13.2109C16.9056 13.2109 16.7969 13.3197 16.7969 13.4538C16.7969 13.5879 16.9056 13.6966 17.0397 13.6966Z" fill="#442823"/>
<path id="Vector_32" d="M15.6413 15.1536C15.7754 15.1536 15.8841 15.0449 15.8841 14.9108C15.8841 14.7767 15.7754 14.668 15.6413 14.668C15.5072 14.668 15.3984 14.7767 15.3984 14.9108C15.3984 15.0449 15.5072 15.1536 15.6413 15.1536Z" fill="#442823"/>
<path id="Vector_33" d="M15.1881 13.6966C15.3223 13.6966 15.431 13.5879 15.431 13.4538C15.431 13.3197 15.3223 13.2109 15.1881 13.2109C15.054 13.2109 14.9453 13.3197 14.9453 13.4538C14.9453 13.5879 15.054 13.6966 15.1881 13.6966Z" fill="#442823"/>
</g>
<g id="Group_2">
<path id="Vector_34" d="M22.9616 13.6966C23.0957 13.6966 23.2044 13.5879 23.2044 13.4538C23.2044 13.3197 23.0957 13.2109 22.9616 13.2109C22.8275 13.2109 22.7188 13.3197 22.7188 13.4538C22.7188 13.5879 22.8275 13.6966 22.9616 13.6966Z" fill="#442823"/>
<path id="Vector_35" d="M24.36 15.1536C24.4941 15.1536 24.6028 15.0449 24.6028 14.9108C24.6028 14.7767 24.4941 14.668 24.36 14.668C24.2259 14.668 24.1172 14.7767 24.1172 14.9108C24.1172 15.0449 24.2259 15.1536 24.36 15.1536Z" fill="#442823"/>
<path id="Vector_36" d="M24.8131 13.6966C24.9472 13.6966 25.0559 13.5879 25.0559 13.4538C25.0559 13.3197 24.9472 13.2109 24.8131 13.2109C24.679 13.2109 24.5703 13.3197 24.5703 13.4538C24.5703 13.5879 24.679 13.6966 24.8131 13.6966Z" fill="#442823"/>
</g>
</g>
</svg>
