<svg width="40" height="40" viewBox="0 0 40 40" fill="none" xmlns="http://www.w3.org/2000/svg">
<g id="Group 49">
<path id="Vector" d="M19.9662 29.5037C28.5699 41.2323 36.9898 26.23 36.9773 17.2081C36.9629 6.54162 26.1515 0.580078 19.9592 0.580078C10.02 0.579926 0.554688 8.79414 0.554688 20.033C0.554688 32.5252 11.4048 39.4447 19.9592 39.4447C18.0234 39.1659 11.5722 37.7837 11.4857 22.9249C11.4272 12.8755 14.7639 8.86037 19.9452 10.6266C20.0613 10.6696 25.6603 12.8784 25.6603 20.0936C25.6603 27.2784 19.9662 29.5035 19.9662 29.5035V29.5037Z" fill="url(#paint0_linear_822_4122)"/>
<path id="Vector_2" d="M19.9541 10.6182C14.269 8.65877 7.30469 13.3444 7.30469 22.7294C7.30469 38.0536 18.6604 39.4445 20.037 39.4445C29.9762 39.4445 39.4415 31.2301 39.4415 19.9914C39.4415 7.49924 28.5913 0.579758 20.037 0.579758C22.4063 0.251633 32.8073 3.14399 32.8073 17.3594C32.8073 26.6298 25.0411 31.6766 19.9898 29.5204C19.8737 29.4774 14.2745 27.2686 14.2745 20.0534C14.2745 12.8685 19.9541 10.6182 19.9541 10.6182V10.6182Z" fill="url(#paint1_linear_822_4122)"/>
</g>
<defs>
<linearGradient id="paint0_linear_822_4122" x1="6.30619" y1="6.30755" x2="35.3559" y2="31.8211" gradientUnits="userSpaceOnUse">
<stop/>
<stop offset="1" stop-color="white"/>
</linearGradient>
<linearGradient id="paint1_linear_822_4122" x1="33.7006" y1="33.7033" x2="2.2585" y2="12.2318" gradientUnits="userSpaceOnUse">
<stop/>
<stop offset="1" stop-color="white"/>
</linearGradient>
</defs>
</svg>
