<svg width="36" height="40" viewBox="0 0 36 40" fill="none" xmlns="http://www.w3.org/2000/svg">
<g id="Group 83">
<path id="polygon2989" d="M35.1418 0.555664L32.0179 35.5516L17.9757 39.4446L3.97218 35.5571L0.851562 0.555664H35.1418Z" fill="#264DE4"/>
<path id="polygon2991" d="M29.3468 33.3236L32.0164 3.41797H18V36.4694L29.3468 33.3236Z" fill="#2965F1"/>
<path id="polygon2993" d="M8.00781 16.3994L8.39256 20.6921H17.999V16.3994H8.00781Z" fill="#EBEBEB"/>
<path id="polygon2995" d="M17.9986 7.70996H17.9838H7.23438L7.62461 12.0028H17.9986V7.70996Z" fill="#EBEBEB"/>
<path id="polygon2997" d="M18.0006 32.0138V27.5475L17.9817 27.5525L13.2008 26.2616L12.8952 22.8379H10.5721H8.58594L9.18735 29.5782L17.9808 32.0193L18.0006 32.0138Z" fill="#EBEBEB"/>
<path id="polygon3005" d="M23.2705 20.6914L22.7722 26.2588L17.9844 27.5511V32.0172L26.7848 29.5781L26.8494 28.8529L27.8581 17.5514L27.9629 16.3987L28.7379 7.70996H17.9844V12.0028H24.0333L23.6427 16.3987H17.9844V20.6914H23.2705Z" fill="white"/>
</g>
</svg>
