<svg width="40" height="36" viewBox="0 0 40 36" fill="none" xmlns="http://www.w3.org/2000/svg">
<g id="Group 48">
<path id="Vector" d="M12.4001 13.1582L19.7783 8.89837C19.8691 8.84595 19.972 8.81836 20.0768 8.81836C20.1816 8.81836 20.2846 8.84595 20.3753 8.89837L27.7536 13.1582C27.8443 13.2106 27.9197 13.286 27.9721 13.3767C28.0245 13.4675 28.0521 13.5704 28.0521 13.6752V22.1949C28.0521 22.408 27.9382 22.605 27.7536 22.7118L20.3753 26.9717C20.2846 27.0241 20.1816 27.0517 20.0768 27.0517C19.972 27.0517 19.8691 27.0241 19.7783 26.9717L12.4001 22.7118C12.3093 22.6594 12.234 22.5841 12.1816 22.4933C12.1292 22.4026 12.1016 22.2997 12.1016 22.1949V13.675C12.1017 13.4617 12.2155 13.2649 12.4001 13.1581" fill="#8080F2"/>
<path id="Vector_2" d="M39.2031 17.2367L30.378 1.88357C30.0575 1.32849 29.4654 0.918945 28.8243 0.918945H11.174C10.533 0.918945 9.94052 1.32849 9.61999 1.88357L0.795085 17.2028C0.474555 17.758 0.474555 18.4588 0.795085 19.014L9.61999 34.2413C9.94052 34.7964 10.533 35.0802 11.174 35.0802H28.8242C29.4652 35.0802 30.0575 34.8049 30.3779 34.2497L39.2029 18.9976C39.5238 18.4427 39.5238 17.7917 39.2029 17.2367H39.2031ZM31.8955 24.6195C31.8955 24.8451 31.7597 25.054 31.564 25.167L20.3228 31.6525C20.226 31.7079 20.1164 31.7371 20.0049 31.7371C19.8933 31.7371 19.7837 31.7079 19.6869 31.6525L8.43707 25.167C8.24156 25.054 8.10469 24.8452 8.10469 24.6193V11.648C8.10469 11.4222 8.23959 11.2136 8.43525 11.1006L19.6758 4.61492C19.7726 4.55937 19.8822 4.53014 19.9937 4.53014C20.1052 4.53014 20.2148 4.55937 20.3116 4.61492L31.562 11.1006C31.7578 11.2136 31.8955 11.4222 31.8955 11.648V24.6193V24.6195Z" fill="#4B32C3"/>
</g>
</svg>
