<svg width="40" height="38" viewBox="0 0 40 38" fill="none" xmlns="http://www.w3.org/2000/svg">
<path id="Vector" d="M27.5006 26.3241C28.9357 26.1756 30.0244 24.9384 29.9749 23.4536C29.9256 21.969 28.6882 20.7812 27.2036 20.7812H27.1047C25.5704 20.8308 24.3828 22.1174 24.4323 23.6516C24.4819 24.394 24.7787 25.0373 25.2241 25.4827C23.5415 28.7986 20.9682 31.2235 17.1082 33.2526C14.4853 34.6383 11.7635 35.1332 9.04174 34.7869C6.81474 34.4899 5.08266 33.5002 3.99377 31.8669C2.41027 29.4419 2.26185 26.8189 3.59805 24.196C4.53837 22.3154 6.02283 20.9297 6.96316 20.2368C6.76522 19.5935 6.46823 18.5047 6.31982 17.713C-0.855949 22.9094 -0.113566 29.9368 2.06391 33.2526C3.69694 35.7272 7.01268 37.2613 10.6748 37.2613C11.6645 37.2613 12.6542 37.1623 13.644 36.915C19.9785 35.6777 24.7788 31.9164 27.5006 26.3241V26.3241ZM36.2105 20.1874C32.4494 15.7828 26.9068 13.3579 20.5723 13.3579H19.7806C19.3352 12.4671 18.3948 11.8731 17.3556 11.8731H17.2566C15.7226 11.9226 14.535 13.2093 14.5843 14.7436C14.6338 16.2282 15.871 17.416 17.3556 17.416H17.4545C18.5432 17.3665 19.4836 16.6736 19.8794 15.7333H20.7702C24.5314 15.7333 28.0944 16.822 31.3113 18.9501C33.7856 20.5833 35.5672 22.7114 36.5569 25.2848C37.3981 27.3633 37.3486 29.3924 36.4578 31.1246C35.0723 33.7475 32.7464 35.1827 29.6781 35.1827C27.6986 35.1827 25.8181 34.5888 24.8282 34.1434C24.2839 34.6383 23.2941 35.4301 22.6012 35.9251C24.7293 36.9148 26.9068 37.4593 28.9852 37.4593C33.7361 37.4593 37.2497 34.8362 38.5859 32.2134C40.021 29.3429 39.922 24.394 36.2105 20.1874V20.1874ZM11.0706 27.1653C11.1202 28.65 12.3573 29.8377 13.8419 29.8377H13.941C15.4751 29.7883 16.6628 28.5015 16.6132 26.9673C16.5639 25.4826 15.3266 24.2949 13.8419 24.2949H13.743C13.644 24.2949 13.4954 24.2949 13.3967 24.3443C11.3676 20.979 10.5264 17.3169 10.8233 13.3577C11.0211 10.3883 12.011 7.81484 13.743 5.68674C15.1781 3.85562 17.9494 2.96482 19.8301 2.91545C25.0757 2.81641 27.3025 9.34898 27.4511 11.972C28.0944 12.1204 29.1832 12.4669 29.9255 12.7144C29.3316 4.6972 24.3828 0.540039 19.6321 0.540039C15.1781 0.540039 11.0706 3.75688 9.43746 8.50786C7.16109 14.8425 8.64571 20.9297 11.417 25.7302C11.1697 26.0765 11.0211 26.621 11.0706 27.1654V27.1653Z" fill="#764ABC"/>
</svg>
