<svg width="40" height="40" viewBox="0 0 40 40" fill="none" xmlns="http://www.w3.org/2000/svg">
<path id="Vector" d="M19.9991 0.555664C9.25958 0.555664 0.554688 9.26055 0.554688 20.0001C0.554688 30.7397 9.25958 39.4445 19.9991 39.4445C30.7387 39.4445 39.4436 30.7397 39.4436 20.0001C39.4436 9.26055 30.7387 0.555664 19.9991 0.555664ZM4.73291 20.2023L19.7969 35.2663C11.5245 35.159 4.84024 28.4748 4.73291 20.2023ZM23.4167 34.8852L5.11402 16.5826C6.66646 9.79566 12.7409 4.73077 19.9991 4.73077C25.0718 4.73077 29.5674 7.20566 32.344 11.0137L30.23 12.8788C27.9776 9.64944 24.2349 7.53544 19.9991 7.53544C14.606 7.53544 10.0125 10.9608 8.27646 15.755L24.2442 31.7212C28.1222 30.3166 31.1042 27.0437 32.1029 22.9899H25.4856V20.0001H35.27C35.2685 27.2583 30.2036 33.3328 23.4167 34.8852Z" fill="#744C9E"/>
</svg>
