<svg width="26" height="40" viewBox="0 0 26 40" fill="none" xmlns="http://www.w3.org/2000/svg">
<g id="Group 84">
<path id="Vector" d="M6.52055 39.4444C10.0983 39.4444 13.002 36.5407 13.002 32.9629V26.4814H6.52055C2.94277 26.4814 0.0390625 29.3851 0.0390625 32.9629C0.0390625 36.5407 2.94277 39.4444 6.52055 39.4444Z" fill="#0ACF83"/>
<path id="Vector_2" d="M0.0390625 20C0.0390625 16.4223 2.94277 13.5186 6.52055 13.5186H13.002V26.4815H6.52055C2.94277 26.4815 0.0390625 23.5778 0.0390625 20Z" fill="#A259FF"/>
<path id="Vector_3" d="M0.0390625 7.03714C0.0390625 3.45937 2.94277 0.555664 6.52055 0.555664H13.002V13.5186H6.52055C2.94277 13.5186 0.0390625 10.6149 0.0390625 7.03714Z" fill="#F24E1E"/>
<path id="Vector_4" d="M13 0.555664H19.4815C23.0593 0.555664 25.963 3.45937 25.963 7.03714C25.963 10.6149 23.0593 13.5186 19.4815 13.5186H13V0.555664Z" fill="#FF7262"/>
<path id="Vector_5" d="M25.963 20C25.963 23.5778 23.0593 26.4815 19.4815 26.4815C15.9037 26.4815 13 23.5778 13 20C13 16.4223 15.9037 13.5186 19.4815 13.5186C23.0593 13.5186 25.963 16.4223 25.963 20Z" fill="#1ABCFE"/>
</g>
</svg>
