<svg width="36" height="40" viewBox="0 0 36 40" fill="none" xmlns="http://www.w3.org/2000/svg">
<path id="Vector" d="M24.4832 38.3506C27.3563 28.0484 26.3225 22.8552 21.2856 21.8574C22.0549 25.3556 22.9205 28.95 19.2419 31.3783C17.3185 32.6525 15.7918 32.1596 12.3778 29.539C10.803 32.7727 11.3319 35.9944 12.0652 39.4445C7.17257 38.591 3.31373 36.5594 1.52256 31.8351C-0.328722 27.5314 0.693085 22.5426 4.05905 19.2969C5.23713 18.0947 6.5114 17.0008 7.86981 16.015C13.3756 11.8797 14.4455 7.86461 11.5363 1.6496C11.4041 1.28896 11.2959 0.928324 11.2237 0.555664C17.3426 1.4813 23.1368 3.94567 28.0656 7.69631C38.8006 16.4719 37.5023 32.2558 25.6493 38.0501C25.2406 38.0741 24.8559 38.1703 24.4832 38.3506V38.3506Z" fill="#EE4854"/>
</svg>
