<svg width="36" height="40" viewBox="0 0 36 40" fill="none" xmlns="http://www.w3.org/2000/svg">
<g id="Group 79">
<path id="Vector" d="M18.0019 0.555664L0.816201 10.2779V29.7223L18.0019 39.4446L35.1875 29.7223V10.2779L18.0019 0.555664Z" fill="white"/>
<path id="Vector_2" d="M3.87847 29.0513L17.428 36.7157V30.7462L8.98588 26.1022L3.87847 29.0513ZM2.95162 28.212V12.1833L7.90996 15.0448V25.3471L2.95162 28.212ZM32.1669 29.0513L18.6174 36.7157V30.7462L27.0595 26.1022L32.1669 29.0513V29.0513ZM33.0938 28.212V12.1833L28.1354 15.0448V25.3471L33.0938 28.212V28.212ZM32.5137 11.1462L18.6174 3.28418V9.05594L27.5197 13.9527L27.5877 13.9916L32.5137 11.1462V11.1462ZM3.53171 11.1462L17.428 3.28418V9.05594L8.5257 13.9527L8.45764 13.9916L3.53171 11.1462V11.1462Z" fill="#8ED6FB"/>
<path id="Vector_3" d="M18.6166 29.3888L26.9453 24.8096V15.7355L18.6166 20.5448V29.3888ZM17.4273 29.3888L9.09856 24.8096V15.7355L17.4273 20.5448V29.3888ZM26.3814 14.6855L18.0203 10.0869L9.6592 14.6855L18.0203 19.5142L26.3814 14.6855" fill="#1C78C0"/>
</g>
</svg>
