<svg width="40" height="40" viewBox="0 0 40 40" fill="none" xmlns="http://www.w3.org/2000/svg">
<path id="Vector" d="M23.8108 25.7235L14.2733 23.7305C14.2334 23.8077 14.1889 23.8825 14.1402 23.9546L22.8228 36.6203L23.3466 36.0971L24.8237 26.9113C24.574 26.8058 24.3525 26.6435 24.1766 26.4373C24.0007 26.231 23.8755 25.9866 23.8108 25.7234V25.7235ZM20.3315 13.2559C19.9742 13.804 19.3575 14.1667 18.6551 14.1667C18.5469 14.1667 18.4418 14.1558 18.3385 14.1394L13.9889 20.945L25.6095 15.9442C25.6059 15.8974 25.5955 15.8536 25.5955 15.8056C25.5955 15.7078 25.6089 15.613 25.6247 15.5194L20.3315 13.256V13.2559ZM20.6475 12.0157L26.2779 14.4231C26.4573 14.2829 26.6625 14.1793 26.8819 14.1181L27.8073 8.36385L24.2817 4.83824L20.3133 11.0479C20.5078 11.3356 20.623 11.6695 20.6475 12.0159V12.0157ZM32.4454 13.0019L28.912 9.46792L28.1439 14.239C28.3386 14.3369 28.5136 14.47 28.6598 14.6316L32.4454 13.0019V13.0019ZM23.9797 24.4668C24.118 24.2158 24.3166 24.0032 24.5577 23.8482C24.7987 23.6932 25.0746 23.6007 25.3604 23.579L26.3751 17.2676C26.2955 17.2147 26.2244 17.1515 26.1546 17.0865L14.4671 22.1165C14.4969 22.2386 14.5176 22.3632 14.5273 22.4926L23.9797 24.4668V24.4668ZM33.4078 13.965L29.3197 15.7241L39.4065 20.0366L39.443 20.0001L33.4078 13.965ZM26.1023 26.9303L24.8737 34.5688L32.0079 27.4346L26.8691 26.3615C26.6721 26.6194 26.4063 26.8165 26.1023 26.9303V26.9303ZM12.2353 24.9664C11.9771 24.9664 11.7298 24.9221 11.4982 24.8435L9.12849 28.552L8.21279 27.6369L10.4574 24.1248C10.4019 24.056 10.3501 23.9841 10.3024 23.9096L6.23617 25.6603L5.27232 24.6965L9.72321 22.7806L1.67652 21.1011L0.575955 20.0001L0.924126 19.6519L10.2034 21.5891C10.3101 21.3866 10.4467 21.2014 10.6087 21.0398L6.10493 14.4705L7.01455 13.5609L11.7199 20.4248C11.8888 20.3856 12.0617 20.3654 12.2351 20.3647C12.4338 20.3647 12.6265 20.3926 12.8106 20.44L17.2136 13.5506C16.8551 13.1787 16.655 12.6823 16.6552 12.1658C16.6552 12.0078 16.6752 11.8547 16.7099 11.7076L11.2169 9.35915L12.1805 8.39545L17.3848 10.6212C17.6487 10.4037 17.9641 10.2577 18.3008 10.1974C18.6374 10.1371 18.9839 10.1644 19.3069 10.2767L23.3665 3.92315L19.9991 0.555664L0.554688 20.0001L19.9991 39.4446L21.9126 37.5311L13.165 24.7694C12.8722 24.8992 12.5555 24.9663 12.2353 24.9664V24.9664ZM27.6129 17.5397L26.5805 23.9558C26.7609 24.1007 26.9103 24.2805 27.0198 24.4844C27.1293 24.6883 27.1967 24.9122 27.2179 25.1426L33.0773 26.3658L38.4427 21.0004L28.7583 16.8599C28.4812 17.2288 28.0694 17.4732 27.6129 17.5398V17.5397Z" fill="#25C7B7"/>
</svg>
