<svg width="40" height="40" viewBox="0 0 40 40" fill="none" xmlns="http://www.w3.org/2000/svg">
<g id="Group 47">
<path id="Rectangle" d="M29.2619 7.96289H31.1137C31.6322 7.96289 32.0397 8.3703 32.0397 8.88881C32.0397 9.40733 31.6322 9.81474 31.1137 9.81474H29.2619C28.7433 9.81474 28.3359 9.40733 28.3359 8.88881C28.3359 8.3703 28.7433 7.96289 29.2619 7.96289Z" fill="#56B3B4"/>
<path id="Rectangle_1_" d="M1.48061 37.5928H10.7399C11.2584 37.5928 11.6658 38.0002 11.6658 38.5187C11.6658 39.0372 11.2584 39.4446 10.7399 39.4446H1.48061C0.962094 39.4446 0.554688 39.0372 0.554688 38.5187C0.554688 38.0002 0.962094 37.5928 1.48061 37.5928Z" fill="#EA5E5E"/>
<path id="Rectangle_2_" d="M23.6994 22.7783H29.2549C29.7734 22.7783 30.1808 23.1857 30.1808 23.7042C30.1808 24.2227 29.7734 24.6301 29.2549 24.6301H23.6994C23.1808 24.6301 22.7734 24.2227 22.7734 23.7042C22.7734 23.1857 23.1808 22.7783 23.6994 22.7783Z" fill="#BF85BF"/>
<path id="Rectangle_3_" d="M12.59 22.7783H19.9974C20.5159 22.7783 20.9233 23.1857 20.9233 23.7042C20.9233 24.2227 20.5159 24.6301 19.9974 24.6301H12.59C12.0715 24.6301 11.6641 24.2227 11.6641 23.7042C11.6641 23.1857 12.0715 22.7783 12.59 22.7783Z" fill="#EA5E5E"/>
<path id="Rectangle_4_" d="M1.48061 22.7783H8.88803C9.40655 22.7783 9.81396 23.1857 9.81396 23.7042C9.81396 24.2227 9.40655 24.6301 8.88803 24.6301H1.48061C0.962095 24.6301 0.554688 24.2227 0.554688 23.7042C0.554688 23.1857 0.962095 22.7783 1.48061 22.7783Z" fill="#56B3B4"/>
<path id="Rectangle_5_" d="M1.48061 30.1855H10.7399C11.2584 30.1855 11.6658 30.593 11.6658 31.1115C11.6658 31.63 11.2584 32.0374 10.7399 32.0374H1.48061C0.962094 32.0374 0.554688 31.63 0.554688 31.1115C0.554688 30.593 0.962094 30.1855 1.48061 30.1855Z" fill="#BF85BF"/>
<path id="Rectangle_6_" d="M1.48061 15.3701H10.7399C11.2584 15.3701 11.6658 15.7775 11.6658 16.2961C11.6658 16.8146 11.2584 17.222 10.7399 17.222H1.48061C0.962094 17.222 0.554688 16.8146 0.554688 16.2961C0.554688 15.7775 0.962094 15.3701 1.48061 15.3701Z" fill="#BF85BF"/>
<path id="Rectangle_7_" d="M10.7384 4.25977H29.2569C29.7754 4.25977 30.1828 4.66718 30.1828 5.1857C30.1828 5.70422 29.7754 6.11163 29.2569 6.11163H10.7384C10.2199 6.11163 9.8125 5.70422 9.8125 5.1857C9.8125 4.66718 10.2199 4.25977 10.7384 4.25977Z" fill="#F7BA3E"/>
<path id="Rectangle_8_" d="M1.48061 4.25977H7.03617C7.55469 4.25977 7.96209 4.66718 7.96209 5.1857C7.96209 5.70422 7.55469 6.11163 7.03617 6.11163H1.48061C0.962095 6.11163 0.554688 5.70422 0.554688 5.1857C0.554688 4.66718 0.962095 4.25977 1.48061 4.25977Z" fill="#EA5E5E"/>
<path id="Rectangle_9_" d="M8.88687 33.8887H10.7387C11.2573 33.8887 11.6647 34.2961 11.6647 34.8146C11.6647 35.3331 11.2573 35.7405 10.7387 35.7405H8.88687C8.36835 35.7405 7.96094 35.3331 7.96094 34.8146C7.96094 34.2961 8.36835 33.8887 8.88687 33.8887Z" fill="#F7BA3E"/>
<path id="Rectangle_10_" d="M8.88687 11.667H10.7387C11.2573 11.667 11.6647 12.0744 11.6647 12.5929C11.6647 13.1114 11.2573 13.5188 10.7387 13.5188H8.88687C8.36835 13.5188 7.96094 13.1114 7.96094 12.5929C7.96094 12.0744 8.36835 11.667 8.88687 11.667Z" fill="#56B3B4"/>
<path id="Rectangle_11_" d="M1.48061 33.8887H5.18432C5.70284 33.8887 6.11025 34.2961 6.11025 34.8146C6.11025 35.3331 5.70284 35.7405 5.18432 35.7405H1.48061C0.962096 35.7405 0.554688 35.3331 0.554688 34.8146C0.554688 34.2961 0.962096 33.8887 1.48061 33.8887Z" fill="#56B3B4"/>
<path id="Rectangle_12_" d="M1.48061 11.667H5.18432C5.70284 11.667 6.11025 12.0744 6.11025 12.5929C6.11025 13.1114 5.70284 13.5188 5.18432 13.5188H1.48061C0.962096 13.5188 0.554688 13.1114 0.554688 12.5929C0.554688 12.0744 0.962096 11.667 1.48061 11.667Z" fill="#F7BA3E"/>
<path id="Rectangle_13_" opacity="0.5" d="M25.5509 33.8887H27.4027C27.9212 33.8887 28.3286 34.2961 28.3286 34.8146C28.3286 35.3331 27.9212 35.7405 27.4027 35.7405H25.5509C25.0324 35.7405 24.625 35.3331 24.625 34.8146C24.625 34.2961 25.0324 33.8887 25.5509 33.8887Z" fill="#D0D4D8"/>
<path id="Rectangle_14_" opacity="0.5" d="M14.4416 33.8887H21.849C22.3675 33.8887 22.7749 34.2961 22.7749 34.8146C22.7749 35.3331 22.3675 35.7405 21.849 35.7405H14.4416C13.923 35.7405 13.5156 35.3331 13.5156 34.8146C13.5156 34.2961 13.923 33.8887 14.4416 33.8887Z" fill="#D0D4D8"/>
<path id="Rectangle_15_" opacity="0.5" d="M31.1134 33.8887H38.5209C39.0394 33.8887 39.4468 34.2961 39.4468 34.8146C39.4468 35.3331 39.0394 35.7405 38.5209 35.7405H31.1134C30.5949 35.7405 30.1875 35.3331 30.1875 34.8146C30.1875 34.2961 30.5949 33.8887 31.1134 33.8887Z" fill="#D0D4D8"/>
<path id="Rectangle_16_" d="M16.2931 19.0742H31.1079C31.6264 19.0742 32.0338 19.4816 32.0338 20.0001C32.0338 20.5186 31.6264 20.926 31.1079 20.926H16.2931C15.7746 20.926 15.3672 20.5186 15.3672 20.0001C15.3672 19.4816 15.7746 19.0742 16.2931 19.0742Z" fill="#56B3B4"/>
<path id="Rectangle_17_" d="M7.0353 19.0742H12.5909C13.1094 19.0742 13.5168 19.4816 13.5168 20.0001C13.5168 20.5186 13.1094 20.926 12.5909 20.926H7.0353C6.51678 20.926 6.10938 20.5186 6.10938 20.0001C6.10938 19.4816 6.51678 19.0742 7.0353 19.0742Z" fill="#F7BA3E"/>
<path id="Rectangle_18_" d="M1.48061 19.0742H3.33247C3.85099 19.0742 4.25839 19.4816 4.25839 20.0001C4.25839 20.5186 3.85099 20.926 3.33247 20.926H1.48061C0.962095 20.926 0.554688 20.5186 0.554688 20.0001C0.554688 19.4816 0.962095 19.0742 1.48061 19.0742Z" fill="#EA5E5E"/>
<path id="Rectangle_19_" d="M18.1447 7.96289H25.5521C26.0706 7.96289 26.478 8.3703 26.478 8.88881C26.478 9.40733 26.0706 9.81474 25.5521 9.81474H18.1447C17.6262 9.81474 17.2188 9.40733 17.2188 8.88881C17.2188 8.3703 17.6262 7.96289 18.1447 7.96289Z" fill="#BF85BF"/>
<path id="Rectangle_20_" d="M1.48061 7.96289H14.4436C14.9621 7.96289 15.3695 8.3703 15.3695 8.88881C15.3695 9.40733 14.9621 9.81474 14.4436 9.81474H1.48061C0.962095 9.81474 0.554688 9.40733 0.554688 8.88881C0.554688 8.3703 0.962095 7.96289 1.48061 7.96289Z" fill="#56B3B4"/>
<path id="Rectangle_21_" d="M7.0353 26.4814H23.702C24.2205 26.4814 24.6279 26.8889 24.6279 27.4074C24.6279 27.9259 24.2205 28.3333 23.702 28.3333H7.0353C6.51678 28.3333 6.10938 27.9259 6.10938 27.4074C6.10938 26.8889 6.51678 26.4814 7.0353 26.4814Z" fill="#F7BA3E"/>
<path id="Rectangle_22_" d="M1.48061 26.4814H3.33247C3.85099 26.4814 4.25839 26.8889 4.25839 27.4074C4.25839 27.9259 3.85099 28.3333 3.33247 28.3333H1.48061C0.962095 28.3333 0.554688 27.9259 0.554688 27.4074C0.554688 26.8889 0.962095 26.4814 1.48061 26.4814Z" fill="#BF85BF"/>
<path id="Rectangle_23_" d="M23.6994 11.667H32.9586C33.4771 11.667 33.8845 12.0744 33.8845 12.5929C33.8845 13.1114 33.4771 13.5188 32.9586 13.5188H23.6994C23.1808 13.5188 22.7734 13.1114 22.7734 12.5929C22.7734 12.0744 23.1808 11.667 23.6994 11.667Z" fill="#EA5E5E"/>
<path id="Rectangle_24_" d="M23.6994 15.3701H32.9586C33.4771 15.3701 33.8845 15.7775 33.8845 16.2961C33.8845 16.8146 33.4771 17.222 32.9586 17.222H23.6994C23.1808 17.222 22.7734 16.8146 22.7734 16.2961C22.7734 15.7775 23.1808 15.3701 23.6994 15.3701Z" fill="#F7BA3E"/>
<path id="Rectangle_25_" d="M1.48061 0.555664H23.7028C24.2214 0.555664 24.6288 0.963072 24.6288 1.48159C24.6288 2.00011 24.2214 2.40752 23.7028 2.40752H1.48061C0.962095 2.40752 0.554688 2.00011 0.554688 1.48159C0.554688 0.963072 0.962095 0.555664 1.48061 0.555664Z" fill="#56B3B4"/>
<path id="Rectangle_26_" opacity="0.5" d="M27.4103 0.555664H38.5214C39.0399 0.555664 39.4473 0.963072 39.4473 1.48159C39.4473 2.00011 39.0399 2.40752 38.5214 2.40752H27.4103C26.8918 2.40752 26.4844 2.00011 26.4844 1.48159C26.4844 0.963072 26.8918 0.555664 27.4103 0.555664Z" fill="#D0D4D8"/>
<path id="Rectangle_27_" opacity="0.5" d="M27.4103 26.4814H31.114C31.6325 26.4814 32.0399 26.8889 32.0399 27.4074C32.0399 27.9259 31.6325 28.3333 31.114 28.3333H27.4103C26.8918 28.3333 26.4844 27.9259 26.4844 27.4074C26.4844 26.8889 26.8918 26.4814 27.4103 26.4814Z" fill="#D0D4D8"/>
<path id="Rectangle_28_" opacity="0.5" d="M34.8166 26.4814H38.5203C39.0388 26.4814 39.4462 26.8889 39.4462 27.4074C39.4462 27.9259 39.0388 28.3333 38.5203 28.3333H34.8166C34.298 28.3333 33.8906 27.9259 33.8906 27.4074C33.8906 26.8889 34.298 26.4814 34.8166 26.4814Z" fill="#D0D4D8"/>
<path id="Rectangle_29_" opacity="0.5" d="M32.965 22.7783H38.5206C39.0391 22.7783 39.4465 23.1857 39.4465 23.7042C39.4465 24.2227 39.0391 24.6301 38.5206 24.6301H32.965C32.4465 24.6301 32.0391 24.2227 32.0391 23.7042C32.0391 23.1857 32.4465 22.7783 32.965 22.7783Z" fill="#D0D4D8"/>
<path id="Rectangle_30_" opacity="0.5" d="M32.965 4.25977H38.5206C39.0391 4.25977 39.4465 4.66718 39.4465 5.1857C39.4465 5.70422 39.0391 6.11163 38.5206 6.11163H32.965C32.4465 6.11163 32.0391 5.70422 32.0391 5.1857C32.0391 4.66718 32.4465 4.25977 32.965 4.25977Z" fill="#D0D4D8"/>
<path id="Rectangle_31_" opacity="0.5" d="M34.8166 19.0742H38.5203C39.0388 19.0742 39.4462 19.4816 39.4462 20.0001C39.4462 20.5186 39.0388 20.926 38.5203 20.926H34.8166C34.298 20.926 33.8906 20.5186 33.8906 20.0001C33.8906 19.4816 34.298 19.0742 34.8166 19.0742Z" fill="#D0D4D8"/>
<path id="Rectangle_32_" opacity="0.5" d="M34.8166 7.96289H38.5203C39.0388 7.96289 39.4462 8.3703 39.4462 8.88881C39.4462 9.40733 39.0388 9.81474 38.5203 9.81474H34.8166C34.298 9.81474 33.8906 9.40733 33.8906 8.88881C33.8906 8.3703 34.298 7.96289 34.8166 7.96289Z" fill="#D0D4D8"/>
<path id="Rectangle_33_" opacity="0.5" d="M36.6681 11.667H38.52C39.0385 11.667 39.4459 12.0744 39.4459 12.5929C39.4459 13.1114 39.0385 13.5188 38.52 13.5188H36.6681C36.1496 13.5188 35.7422 13.1114 35.7422 12.5929C35.7422 12.0744 36.1496 11.667 36.6681 11.667Z" fill="#D0D4D8"/>
<path id="Rectangle_34_" opacity="0.5" d="M36.6681 15.3701H38.52C39.0385 15.3701 39.4459 15.7775 39.4459 16.2961C39.4459 16.8146 39.0385 17.222 38.52 17.222H36.6681C36.1496 17.222 35.7422 16.8146 35.7422 16.2961C35.7422 15.7775 36.1496 15.3701 36.6681 15.3701Z" fill="#D0D4D8"/>
<path id="Rectangle_35_" opacity="0.5" d="M21.8478 30.1855H38.5144C39.0329 30.1855 39.4403 30.593 39.4403 31.1115C39.4403 31.63 39.0329 32.0374 38.5144 32.0374H21.8478C21.3293 32.0374 20.9219 31.63 20.9219 31.1115C20.9219 30.593 21.3293 30.1855 21.8478 30.1855Z" fill="#D0D4D8"/>
<path id="Rectangle_36_" opacity="0.5" d="M14.4416 30.1855H18.1453C18.6638 30.1855 19.0712 30.593 19.0712 31.1115C19.0712 31.63 18.6638 32.0374 18.1453 32.0374H14.4416C13.923 32.0374 13.5156 31.63 13.5156 31.1115C13.5156 30.593 13.923 30.1855 14.4416 30.1855Z" fill="#D0D4D8"/>
<path id="Rectangle_37_" opacity="0.5" d="M29.2619 37.5928H38.5212C39.0397 37.5928 39.4471 38.0002 39.4471 38.5187C39.4471 39.0372 39.0397 39.4446 38.5212 39.4446H29.2619C28.7433 39.4446 28.3359 39.0372 28.3359 38.5187C28.3359 38.0002 28.7433 37.5928 29.2619 37.5928Z" fill="#D0D4D8"/>
<path id="Rectangle_38_" opacity="0.5" d="M14.4415 37.5928H25.5526C26.0712 37.5928 26.4786 38.0002 26.4786 38.5187C26.4786 39.0372 26.0712 39.4446 25.5526 39.4446H14.4415C13.923 39.4446 13.5156 39.0372 13.5156 38.5187C13.5156 38.0002 13.923 37.5928 14.4415 37.5928Z" fill="#D0D4D8"/>
<path id="Rectangle_39_" opacity="0.5" d="M14.4416 11.667H19.9971C20.5157 11.667 20.9231 12.0744 20.9231 12.5929C20.9231 13.1114 20.5157 13.5188 19.9971 13.5188H14.4416C13.923 13.5188 13.5156 13.1114 13.5156 12.5929C13.5156 12.0744 13.923 11.667 14.4416 11.667Z" fill="#D0D4D8"/>
<path id="Rectangle_40_" opacity="0.5" d="M14.4416 15.3701H19.9971C20.5157 15.3701 20.9231 15.7775 20.9231 16.2961C20.9231 16.8146 20.5157 17.222 19.9971 17.222H14.4416C13.923 17.222 13.5156 16.8146 13.5156 16.2961C13.5156 15.7775 13.923 15.3701 14.4416 15.3701Z" fill="#D0D4D8"/>
</g>
</svg>
