<svg width="47" height="39" viewBox="0 0 47 39" fill="none" xmlns="http://www.w3.org/2000/svg">
<path d="M31.6671 27.6665L23.5005 19.4999M23.5005 19.4999L15.3338 27.6665M23.5005 19.4999V37.8749M40.6301 32.5461C42.6214 31.4605 44.1945 29.7427 45.101 27.6637C46.0076 25.5848 46.1961 23.2631 45.6366 21.0652C45.0772 18.8673 43.8018 16.9182 42.0116 15.5257C40.2214 14.1331 38.0185 13.3764 35.7505 13.3749H33.178C32.56 10.9846 31.4082 8.76547 29.8091 6.88439C28.2101 5.00332 26.2054 3.50923 23.9458 2.51444C21.6861 1.51965 19.2304 1.05006 16.7632 1.14096C14.296 1.23186 11.8815 1.8809 9.7012 3.03927C7.52093 4.19764 5.63162 5.8352 4.17532 7.82885C2.71902 9.82249 1.73363 12.1203 1.29322 14.5496C0.852811 16.9789 0.96885 19.4764 1.63261 21.8544C2.29637 24.2324 3.49059 26.429 5.12547 28.279" stroke="#6D717A" stroke-width="2" stroke-linecap="round" stroke-linejoin="round"/>
</svg>
