<svg width="226" height="182" viewBox="0 0 226 182" fill="none" xmlns="http://www.w3.org/2000/svg">
<g clip-path="url(#clip0_3240_15660)">
<mask id="mask0_3240_15660" style="mask-type:luminance" maskUnits="userSpaceOnUse" x="0" y="0" width="226" height="182">
<path d="M0 0.193359H225.182V181.533H0V0.193359Z" fill="white"/>
</mask>
<g mask="url(#mask0_3240_15660)">
<mask id="mask1_3240_15660" style="mask-type:luminance" maskUnits="userSpaceOnUse" x="-23" y="-19" width="272" height="220">
<path d="M248.6 -18.1992H-22.5996V200.201H248.6V-18.1992Z" fill="black" fill-opacity="0.23"/>
</mask>
<g mask="url(#mask1_3240_15660)">
<mask id="mask2_3240_15660" style="mask-type:luminance" maskUnits="userSpaceOnUse" x="0" y="0" width="226" height="183">
<path d="M225.726 0H0V182.275H225.726V0Z" fill="white"/>
</mask>
<g mask="url(#mask2_3240_15660)">
<mask id="mask3_3240_15660" style="mask-type:luminance" maskUnits="userSpaceOnUse" x="0" y="0" width="225" height="182">
<path d="M0 0.193359H224.707V181.468H0V0.193359Z" fill="white"/>
</mask>
<g mask="url(#mask3_3240_15660)">
<mask id="mask4_3240_15660" style="mask-type:luminance" maskUnits="userSpaceOnUse" x="0" y="0" width="225" height="182">
<path d="M9.00576 0.193359H215.941C220.915 0.193359 224.947 4.2338 224.947 9.21787V172.44C224.947 177.424 220.915 181.468 215.941 181.468H9.00576C4.03205 181.468 0 177.424 0 172.44V9.21787C0 4.2338 4.03205 0.193359 9.00576 0.193359Z" fill="white"/>
</mask>
<g mask="url(#mask4_3240_15660)">
<path d="M0 0.193359V181.468H224.707V0.193359H0Z" fill="url(#paint0_linear_3240_15660)"/>
</g>
</g>
<mask id="mask5_3240_15660" style="mask-type:luminance" maskUnits="userSpaceOnUse" x="0" y="0" width="226" height="182">
<path d="M0 0.193359H225.182V181.533H0V0.193359Z" fill="white"/>
</mask>
<g mask="url(#mask5_3240_15660)">
<mask id="mask6_3240_15660" style="mask-type:luminance" maskUnits="userSpaceOnUse" x="0" y="0" width="225" height="182">
<path d="M9.00576 0.193359H215.928C220.906 0.193359 224.938 4.2338 224.938 9.21787V172.431C224.938 177.415 220.906 181.456 215.928 181.456H9.00576C4.03205 181.456 0 177.415 0 172.431V9.21787C0 4.2338 4.03205 0.193359 9.00576 0.193359Z" fill="white"/>
</mask>
<g mask="url(#mask6_3240_15660)">
<path d="M9.00576 0.193359H215.929C220.907 0.193359 224.939 4.2338 224.939 9.21787V172.431C224.939 177.415 220.907 181.456 215.929 181.456H9.00576C4.03205 181.456 0 177.415 0 172.431V9.21787C0 4.2338 4.03205 0.193359 9.00576 0.193359Z" stroke="white" stroke-width="3.98551"/>
</g>
</g>
</g>
</g>
</g>
<mask id="mask7_3240_15660" style="mask-type:luminance" maskUnits="userSpaceOnUse" x="-23" y="-19" width="272" height="220">
<path d="M248.6 -18.1992H-22.5996V200.201H248.6V-18.1992Z" fill="black" fill-opacity="0.83"/>
</mask>
<g mask="url(#mask7_3240_15660)">
<mask id="mask8_3240_15660" style="mask-type:luminance" maskUnits="userSpaceOnUse" x="96" y="17" width="34" height="38">
<path d="M129.3 17.5703H96.4277V54.9036H129.3V17.5703Z" fill="white"/>
</mask>
<g mask="url(#mask8_3240_15660)">
<mask id="mask9_3240_15660" style="mask-type:luminance" maskUnits="userSpaceOnUse" x="96" y="18" width="14" height="26">
<path d="M96.8047 18.5176H109.577V43.9226H96.8047V18.5176Z" fill="white"/>
</mask>
<g mask="url(#mask9_3240_15660)">
<path fill-rule="evenodd" clip-rule="evenodd" d="M106.97 20.9244L109.38 18.5267C109.418 18.5095 109.487 18.5181 109.495 18.5396V23.322C109.474 23.4936 109.491 23.4765 108.986 23.9569L101.945 30.9397C101.928 30.974 101.941 31.0641 101.971 31.1027L109.427 38.4844C109.508 38.6045 109.5 38.2571 109.495 40.9121V43.4685C109.478 43.4899 109.47 43.4899 109.388 43.4728L96.8086 31.004C99.5394 28.2932 98.8546 28.9709 101.585 26.2645C103.79 24.077 103.242 24.626 105.442 22.4385C106.315 21.572 106.097 21.7908 106.97 20.9244Z" fill="white"/>
</g>
<mask id="mask10_3240_15660" style="mask-type:luminance" maskUnits="userSpaceOnUse" x="107" y="27" width="15" height="27">
<path d="M107.385 27.4512H121.63V53.7998H107.385V27.4512Z" fill="white"/>
</mask>
<g mask="url(#mask10_3240_15660)">
<path fill-rule="evenodd" clip-rule="evenodd" d="M118.312 43.8926L107.992 53.8093C107.966 53.3503 107.962 53.4704 108.005 52.9686L108.031 49.4386C108.013 48.718 108.013 48.7137 108.441 48.3019L109.362 47.4141C112.863 44.0384 111.99 44.8791 115.491 41.5078C115.714 41.3019 115.658 41.3534 115.881 41.1518L116.082 40.9631L115.838 40.6843C115.337 40.2125 115.461 40.3283 114.965 39.8565L108.407 33.4398C108.185 33.2039 108.21 33.5685 108.236 30.9006L108.249 29.5366C108.262 29.1849 108.257 29.2707 108.27 28.919C108.275 28.816 108.275 28.8804 108.253 28.4514C108.245 28.3056 108.249 28.2541 108.275 28.2456C108.3 28.2327 108.18 28.1169 109.131 29.0519L121.295 40.9888C121.291 40.9974 121.291 40.9931 121.287 41.006C120.52 41.7566 120.713 41.5679 119.943 42.3142C118.269 43.9441 118.419 43.8025 118.333 43.8583C118.316 43.8669 118.312 43.8755 118.312 43.8926Z" fill="white"/>
</g>
<mask id="mask11_3240_15660" style="mask-type:luminance" maskUnits="userSpaceOnUse" x="117" y="40" width="11" height="9">
<path d="M117.248 40.6289H127.923V48.3152H117.248V40.6289Z" fill="white"/>
</mask>
<g mask="url(#mask11_3240_15660)">
<path fill-rule="evenodd" clip-rule="evenodd" d="M118.314 43.8921C118.314 43.8749 118.319 43.8663 118.336 43.8578C118.421 43.802 118.272 43.9436 119.945 42.3136C120.716 41.5673 120.523 41.7561 121.289 41.0054C121.294 40.9926 121.294 40.9969 121.298 40.9883L128.116 47.8081C128.039 47.8167 128.061 47.8124 127.984 47.821C126.772 47.851 127.072 47.8424 125.865 47.8682C124.114 47.9025 124.551 47.8939 122.8 47.9282C122.402 47.9454 122.385 47.9454 122.295 47.8811L118.314 43.8921Z" fill="#666666"/>
</g>
</g>
</g>
<mask id="mask12_3240_15660" style="mask-type:luminance" maskUnits="userSpaceOnUse" x="-23" y="-19" width="272" height="220">
<path d="M248.6 -18.1992H-22.5996V200.201H248.6V-18.1992Z" fill="black" fill-opacity="0.46"/>
</mask>
<g mask="url(#mask12_3240_15660)">
<mask id="mask13_3240_15660" style="mask-type:luminance" maskUnits="userSpaceOnUse" x="5" y="131" width="215" height="6">
<path d="M219.151 131.766H5.47852V136.158H219.151V131.766Z" fill="white"/>
</mask>
<g mask="url(#mask13_3240_15660)">
<mask id="mask14_3240_15660" style="mask-type:luminance" maskUnits="userSpaceOnUse" x="6" y="132" width="214" height="4">
<path d="M6.02734 132.863H219.058V135.325H6.02734V132.863Z" fill="white"/>
</mask>
<g mask="url(#mask14_3240_15660)">
<path d="M218.685 135.09H6.25391V132.855H218.685V135.09Z" fill="white"/>
</g>
</g>
</g>
<path d="M49.8763 87.9756H48.6093L43.5072 80.2207V87.9756H42.2402V78.2305H43.5072L48.6093 85.9682V78.2305H49.8763V87.9756Z" fill="white"/>
<path d="M59.0024 83.8595C59.0024 84.0997 58.9853 84.357 58.9511 84.6315H52.8559C52.8987 85.3865 53.1555 85.9784 53.6264 86.3987C54.0929 86.8233 54.6622 87.0335 55.3385 87.0335C55.8864 87.0335 56.3401 86.9091 56.7082 86.6561C57.072 86.3944 57.3288 86.047 57.4786 85.6095H58.8483C58.6429 86.3558 58.232 86.9563 57.6156 87.411C56.9992 87.8699 56.2373 88.0972 55.3385 88.0972C54.6065 88.0972 53.9559 87.9385 53.3867 87.6168C52.8131 87.2866 52.3637 86.8233 52.0341 86.2271C51.7131 85.6224 51.5547 84.9232 51.5547 84.134C51.5547 83.3448 51.7088 82.6542 52.017 82.058C52.3337 81.4661 52.7789 81.0072 53.3524 80.6855C53.9217 80.3681 54.5851 80.2051 55.3385 80.2051C56.0576 80.2051 56.6953 80.3681 57.2561 80.6855C57.8125 80.9943 58.2405 81.4318 58.5401 81.9894C58.8483 82.5384 59.0024 83.1646 59.0024 83.8595ZM57.6841 83.585C57.6841 83.1046 57.5728 82.6928 57.3588 82.3497C57.1533 81.998 56.8623 81.7278 56.4856 81.5433C56.1175 81.3632 55.7151 81.2688 55.27 81.2688C54.6279 81.2688 54.0801 81.4747 53.6264 81.8865C53.1812 82.2982 52.9287 82.8644 52.873 83.585H57.6841Z" fill="white"/>
<path d="M70.8411 80.3242L68.4612 87.9762H67.1429L65.3109 81.9027L63.4619 87.9762H62.1606L59.7637 80.3242H61.0478L62.8112 86.7409L64.7117 80.3242H65.9958L67.862 86.758L69.5912 80.3242H70.8411Z" fill="white"/>
<path d="M83.0664 81.3366C83.0664 81.8984 82.9337 82.4131 82.6726 82.8807C82.4072 83.3525 82.0092 83.7342 81.4741 84.0302C80.9348 84.3176 80.2671 84.4591 79.471 84.4591H77.9985V87.9763H75.6016V78.1797H79.471C80.2457 78.1797 80.9006 78.3169 81.4399 78.5915C81.9878 78.8574 82.3901 79.2263 82.6555 79.7066C82.9294 80.1785 83.0664 80.7189 83.0664 81.3366ZM79.2826 82.5547C79.7363 82.5547 80.0745 82.4517 80.2928 82.2459C80.5196 82.0314 80.6352 81.7269 80.6352 81.3366C80.6352 80.9377 80.5196 80.6331 80.2928 80.4272C80.0745 80.2128 79.7363 80.1013 79.2826 80.1013H77.9985V82.5547H79.2826Z" fill="white"/>
<path d="M86.6919 81.4741C86.9658 81.0538 87.3083 80.7192 87.7192 80.479C88.1386 80.2302 88.6095 80.1016 89.1231 80.1016V82.6236H88.4725C87.8775 82.6236 87.4324 82.7566 87.137 83.0182C86.8374 83.2713 86.6919 83.7174 86.6919 84.3565V87.9766H84.2949V80.1873H86.6919V81.4741Z" fill="white"/>
<path d="M93.8013 88.0958C93.0351 88.0958 92.3503 87.9371 91.7467 87.6154C91.1389 87.2852 90.6595 86.8176 90.3086 86.2086C89.9661 85.6038 89.7949 84.8961 89.7949 84.0811C89.7949 83.2833 89.9704 82.5799 90.3257 81.9708C90.6767 81.3532 91.1561 80.8856 91.7639 80.564C92.3802 80.2337 93.0694 80.0664 93.8355 80.0664C94.5974 80.0664 95.2823 80.2337 95.8901 80.564C96.5064 80.8856 96.9901 81.3532 97.3454 81.9708C97.6964 82.5799 97.8761 83.2833 97.8761 84.0811C97.8761 84.8832 97.6921 85.5909 97.3283 86.2086C96.973 86.8176 96.4893 87.2852 95.873 87.6154C95.2566 87.9371 94.5632 88.0958 93.8013 88.0958ZM93.8013 86.0198C94.255 86.0198 94.6445 85.8568 94.9655 85.5223C95.2823 85.1792 95.4449 84.6988 95.4449 84.0811C95.4449 83.4549 95.2908 82.9745 94.9826 82.6399C94.6745 82.3097 94.2892 82.1424 93.8355 82.1424C93.3647 82.1424 92.9795 82.3097 92.6713 82.6399C92.3631 82.9745 92.209 83.4549 92.209 84.0811C92.209 84.6988 92.3545 85.1792 92.6542 85.5223C92.9623 85.8568 93.3433 86.0198 93.8013 86.0198Z" fill="white"/>
<path d="M100.33 79.3817C99.9065 79.3817 99.5641 79.2573 99.303 79.0043C99.0376 78.7555 98.9092 78.4509 98.9092 78.0949C98.9092 77.7175 99.0376 77.4087 99.303 77.1685C99.5641 76.9197 99.9065 76.791 100.33 76.791C100.728 76.791 101.058 76.9197 101.323 77.1685C101.597 77.4087 101.734 77.7175 101.734 78.0949C101.734 78.4509 101.597 78.7555 101.323 79.0043C101.058 79.2573 100.728 79.3817 100.33 79.3817ZM101.529 88.9895C101.529 89.9375 101.28 90.6237 100.793 91.0484C100.313 91.4816 99.6368 91.7003 98.7722 91.7003H97.8477V89.6587H98.4127C98.6738 89.6587 98.8578 89.6072 98.9605 89.5043C99.0718 89.4099 99.1317 89.2469 99.1317 89.0067V80.1881H101.529V88.9895Z" fill="white"/>
<path d="M110.573 83.961C110.573 84.1798 110.556 84.4071 110.522 84.6473H105.128C105.163 85.1405 105.317 85.5137 105.591 85.7625C105.865 86.0155 106.198 86.1399 106.601 86.1399C107.204 86.1399 107.619 85.8912 107.851 85.385H110.385C110.256 85.8997 110.025 86.363 109.683 86.7747C109.34 87.1865 108.912 87.5125 108.399 87.7527C107.893 87.98 107.324 88.0958 106.686 88.0958C105.933 88.0958 105.252 87.9371 104.649 87.6154C104.054 87.2852 103.592 86.8176 103.262 86.2086C102.928 85.6038 102.766 84.8961 102.766 84.0811C102.766 83.2705 102.928 82.5627 103.262 81.9537C103.592 81.3489 104.054 80.8856 104.649 80.564C105.24 80.2337 105.92 80.0664 106.686 80.0664C107.44 80.0664 108.107 80.2294 108.69 80.5468C109.28 80.8685 109.743 81.3189 110.076 81.9022C110.406 82.4855 110.573 83.1718 110.573 83.961ZM108.125 83.3262C108.125 82.9144 107.979 82.5885 107.697 82.3483C107.423 82.1081 107.08 81.988 106.669 81.988C106.267 81.988 105.933 82.1038 105.659 82.3311C105.385 82.5627 105.214 82.893 105.145 83.3262H108.125Z" fill="white"/>
<path d="M111.348 84.0811C111.348 83.2705 111.51 82.5627 111.844 81.9537C112.174 81.3489 112.632 80.8856 113.214 80.564C113.805 80.2337 114.485 80.0664 115.251 80.0664C116.219 80.0664 117.032 80.3238 117.683 80.8385C118.342 81.3532 118.778 82.0738 118.984 83.0002H116.45C116.231 82.4083 115.816 82.1081 115.2 82.1081C114.763 82.1081 114.417 82.2796 114.156 82.6228C113.89 82.9659 113.762 83.4549 113.762 84.0811C113.762 84.7116 113.89 85.1963 114.156 85.5394C114.417 85.8826 114.763 86.0542 115.2 86.0542C115.816 86.0542 116.231 85.7582 116.45 85.162H118.984C118.778 86.067 118.342 86.7833 117.683 87.3066C117.019 87.8342 116.21 88.0958 115.251 88.0958C114.485 88.0958 113.805 87.9371 113.214 87.6154C112.632 87.2852 112.174 86.8176 111.844 86.2086C111.51 85.6038 111.348 84.8961 111.348 84.0811Z" fill="white"/>
<path d="M124.588 85.9523V87.9768H123.372C122.503 87.9768 121.823 87.7667 121.335 87.342C120.855 86.9217 120.615 86.2268 120.615 85.266V82.1607H119.674V80.1876H120.615V78.2832H123.012V80.1876H124.57V82.1607H123.012V85.3004C123.012 85.532 123.064 85.695 123.167 85.7979C123.278 85.9009 123.466 85.9523 123.732 85.9523H124.588Z" fill="white"/>
<path d="M128.596 84.1168C128.596 83.3405 128.75 82.6585 129.058 82.0752C129.375 81.4833 129.811 81.0243 130.359 80.7026C130.916 80.3724 131.541 80.2051 132.225 80.2051C132.885 80.2051 133.462 80.3509 133.955 80.634C134.455 80.9214 134.828 81.2817 135.068 81.7149V80.3252H136.352V87.9771H135.068V86.5531C134.815 86.9992 134.438 87.3724 133.938 87.6683C133.445 87.9557 132.867 88.0972 132.208 88.0972C131.523 88.0972 130.907 87.9342 130.359 87.5997C129.811 87.2694 129.375 86.8019 129.058 86.1928C128.75 85.588 128.596 84.8975 128.596 84.1168ZM135.068 84.134C135.068 83.5635 134.948 83.066 134.708 82.6414C134.477 82.2081 134.164 81.8779 133.766 81.6463C133.377 81.4189 132.944 81.3031 132.465 81.3031C131.994 81.3031 131.562 81.4189 131.164 81.6463C130.774 81.865 130.466 82.191 130.239 82.6242C130.008 83.0488 129.897 83.5464 129.897 84.1168C129.897 84.713 130.008 85.2278 130.239 85.661C130.466 86.0856 130.774 86.4116 131.164 86.6389C131.562 86.8705 131.994 86.982 132.465 86.982C132.944 86.982 133.377 86.8705 133.766 86.6389C134.164 86.4116 134.477 86.0856 134.708 85.661C134.948 85.2278 135.068 84.7173 135.068 84.134Z" fill="white"/>
<path d="M141.335 86.8095L143.698 80.3242H145.051L142.055 87.9762H140.582L137.586 80.3242H138.956L141.335 86.8095Z" fill="white"/>
<path d="M145.832 84.1168C145.832 83.3405 145.986 82.6585 146.294 82.0752C146.611 81.4833 147.048 81.0243 147.596 80.7026C148.152 80.3724 148.777 80.2051 149.462 80.2051C150.121 80.2051 150.699 80.3509 151.191 80.634C151.692 80.9214 152.064 81.2817 152.304 81.7149V80.3252H153.588V87.9771H152.304V86.5531C152.051 86.9992 151.675 87.3724 151.174 87.6683C150.682 87.9557 150.104 88.0972 149.445 88.0972C148.76 88.0972 148.143 87.9342 147.596 87.5997C147.048 87.2694 146.611 86.8019 146.294 86.1928C145.986 85.588 145.832 84.8975 145.832 84.1168ZM152.304 84.134C152.304 83.5635 152.184 83.066 151.944 82.6414C151.713 82.2081 151.401 81.8779 151.003 81.6463C150.613 81.4189 150.181 81.3031 149.701 81.3031C149.231 81.3031 148.798 81.4189 148.4 81.6463C148.011 81.865 147.703 82.191 147.476 82.6242C147.245 83.0488 147.133 83.5464 147.133 84.1168C147.133 84.713 147.245 85.2278 147.476 85.661C147.703 86.0856 148.011 86.4116 148.4 86.6389C148.798 86.8705 149.231 86.982 149.701 86.982C150.181 86.982 150.613 86.8705 151.003 86.6389C151.401 86.4116 151.713 86.0856 151.944 85.661C152.184 85.2278 152.304 84.7173 152.304 84.134Z" fill="white"/>
<path d="M156.377 79.0712C156.137 79.0712 155.932 78.9939 155.761 78.831C155.59 78.6594 155.504 78.4535 155.504 78.2133C155.504 77.9731 155.59 77.7758 155.761 77.6128C155.932 77.4413 156.137 77.3555 156.377 77.3555C156.604 77.3555 156.797 77.4413 156.959 77.6128C157.13 77.7758 157.216 77.9731 157.216 78.2133C157.216 78.4535 157.13 78.6594 156.959 78.831C156.797 78.9939 156.604 79.0712 156.377 79.0712ZM156.993 80.3236V87.9756H155.726V80.3236H156.993Z" fill="white"/>
<path d="M160.423 77.6484V87.9769H159.156V77.6484H160.423Z" fill="white"/>
<path d="M162.102 84.1168C162.102 83.3405 162.256 82.6585 162.564 82.0752C162.881 81.4833 163.317 81.0243 163.865 80.7026C164.421 80.3724 165.046 80.2051 165.731 80.2051C166.39 80.2051 166.968 80.3509 167.461 80.634C167.961 80.9214 168.334 81.2817 168.573 81.7149V80.3252H169.857V87.9771H168.573V86.5531C168.321 86.9992 167.944 87.3724 167.443 87.6683C166.951 87.9557 166.373 88.0972 165.714 88.0972C165.029 88.0972 164.413 87.9342 163.865 87.5997C163.317 87.2694 162.881 86.8019 162.564 86.1928C162.256 85.588 162.102 84.8975 162.102 84.1168ZM168.573 84.134C168.573 83.5635 168.454 83.066 168.214 82.6414C167.983 82.2081 167.67 81.8779 167.272 81.6463C166.883 81.4189 166.45 81.3031 165.971 81.3031C165.5 81.3031 165.068 81.4189 164.67 81.6463C164.28 81.865 163.972 82.191 163.745 82.6242C163.514 83.0488 163.403 83.5464 163.403 84.1168C163.403 84.713 163.514 85.2278 163.745 85.661C163.972 86.0856 164.28 86.4116 164.67 86.6389C165.068 86.8705 165.5 86.982 165.971 86.982C166.45 86.982 166.883 86.8705 167.272 86.6389C167.67 86.4116 167.983 86.0856 168.214 85.661C168.454 85.2278 168.573 84.7173 168.573 84.134Z" fill="white"/>
<path d="M173.267 81.7489C173.528 81.2943 173.905 80.9211 174.397 80.6337C174.898 80.3506 175.476 80.2048 176.126 80.2048C176.811 80.2048 177.427 80.3721 177.975 80.7024C178.523 81.0241 178.951 81.483 179.259 82.0749C179.576 82.6582 179.739 83.3402 179.739 84.1166C179.739 84.8972 179.576 85.5878 179.259 86.1926C178.951 86.8016 178.515 87.2691 177.958 87.5994C177.41 87.934 176.798 88.097 176.126 88.097C175.463 88.097 174.881 87.9554 174.38 87.668C173.888 87.385 173.515 87.0161 173.267 86.57V87.9769H172V77.6484H173.267V81.7489ZM178.455 84.1166C178.455 83.5461 178.335 83.0486 178.095 82.6239C177.864 82.1907 177.552 81.8647 177.153 81.646C176.764 81.4187 176.332 81.3028 175.852 81.3028C175.381 81.3028 174.949 81.4187 174.551 81.646C174.162 81.8776 173.849 82.2079 173.609 82.6411C173.378 83.0657 173.267 83.5633 173.267 84.1337C173.267 84.7171 173.378 85.2275 173.609 85.6607C173.849 86.0853 174.162 86.4113 174.551 86.6386C174.949 86.8703 175.381 86.9818 175.852 86.9818C176.332 86.9818 176.764 86.8703 177.153 86.6386C177.552 86.4113 177.864 86.0853 178.095 85.6607C178.335 85.2275 178.455 84.7128 178.455 84.1166Z" fill="white"/>
<path d="M182.685 77.6484V87.9769H181.418V77.6484H182.685Z" fill="white"/>
<path d="M191.815 83.8595C191.815 84.0997 191.798 84.357 191.764 84.6315H185.668C185.711 85.3865 185.968 85.9784 186.439 86.3987C186.905 86.8233 187.475 87.0335 188.151 87.0335C188.699 87.0335 189.153 86.9091 189.521 86.6561C189.884 86.3944 190.141 86.047 190.291 85.6095H191.661C191.455 86.3558 191.044 86.9563 190.428 87.411C189.812 87.8699 189.05 88.0972 188.151 88.0972C187.419 88.0972 186.768 87.9385 186.199 87.6168C185.626 87.2866 185.176 86.8233 184.847 86.2271C184.526 85.6224 184.367 84.9232 184.367 84.134C184.367 83.3448 184.521 82.6542 184.829 82.058C185.146 81.4661 185.591 81.0072 186.165 80.6855C186.734 80.3681 187.398 80.2051 188.151 80.2051C188.87 80.2051 189.508 80.3681 190.069 80.6855C190.625 80.9943 191.053 81.4318 191.353 81.9894C191.661 82.5384 191.815 83.1646 191.815 83.8595ZM190.497 83.585C190.497 83.1046 190.385 82.6928 190.171 82.3497C189.966 81.998 189.675 81.7278 189.298 81.5433C188.93 81.3632 188.528 81.2688 188.082 81.2688C187.44 81.2688 186.893 81.4747 186.439 81.8865C185.994 82.2982 185.741 82.8644 185.686 83.585H190.497Z" fill="white"/>
<path d="M35.9082 103.037C35.9082 102.26 36.0623 101.578 36.3705 100.995C36.6872 100.403 37.1238 99.9442 37.6717 99.6225C38.2281 99.2923 38.8531 99.125 39.5379 99.125C40.1971 99.125 40.7749 99.2708 41.2671 99.5539C41.7679 99.8413 42.1403 100.202 42.38 100.635V99.2451H43.6641V106.897H42.38V105.473C42.1275 105.919 41.7508 106.292 41.25 106.588C40.7578 106.876 40.1799 107.017 39.5208 107.017C38.8359 107.017 38.2196 106.854 37.6717 106.52C37.1238 106.189 36.6872 105.722 36.3705 105.113C36.0623 104.508 35.9082 103.817 35.9082 103.037ZM42.38 103.054C42.38 102.483 42.2602 101.986 42.0205 101.561C41.7893 101.128 41.4769 100.798 41.0788 100.566C40.6893 100.339 40.257 100.223 39.7776 100.223C39.3068 100.223 38.8745 100.339 38.4764 100.566C38.0869 100.785 37.7787 101.111 37.5518 101.544C37.3207 101.969 37.2094 102.466 37.2094 103.037C37.2094 103.633 37.3207 104.148 37.5518 104.581C37.7787 105.006 38.0869 105.331 38.4764 105.559C38.8745 105.79 39.3068 105.902 39.7776 105.902C40.257 105.902 40.6893 105.79 41.0788 105.559C41.4769 105.331 41.7893 105.006 42.0205 104.581C42.2602 104.148 42.38 103.637 42.38 103.054Z" fill="white"/>
<path d="M45.3262 103.054C45.3262 102.265 45.4803 101.578 45.7884 100.995C46.1052 100.403 46.5461 99.9442 47.1068 99.6225C47.6761 99.2923 48.3224 99.125 49.0415 99.125C49.9874 99.125 50.7622 99.3566 51.37 99.8113C51.9735 100.257 52.3716 100.888 52.5684 101.699H51.2159C51.0789 101.231 50.8221 100.866 50.4454 100.6C50.0687 100.326 49.5979 100.189 49.0415 100.189C48.3224 100.189 47.7403 100.442 47.2951 100.944C46.85 101.437 46.6274 102.14 46.6274 103.054C46.6274 103.98 46.85 104.697 47.2951 105.199C47.7403 105.705 48.3224 105.953 49.0415 105.953C49.5979 105.953 50.0602 105.825 50.4283 105.559C50.805 105.297 51.0661 104.924 51.2159 104.444H52.5684C52.363 105.224 51.9521 105.846 51.3357 106.314C50.7279 106.786 49.966 107.017 49.0415 107.017C48.3224 107.017 47.6761 106.858 47.1068 106.537C46.5461 106.206 46.1052 105.743 45.7884 105.147C45.4803 104.555 45.3262 103.856 45.3262 103.054Z" fill="white"/>
<path d="M53.7832 103.054C53.7832 102.265 53.9373 101.578 54.2455 100.995C54.5622 100.403 55.0031 99.9442 55.5638 99.6225C56.1331 99.2923 56.7794 99.125 57.4985 99.125C58.4445 99.125 59.2192 99.3566 59.827 99.8113C60.4305 100.257 60.8286 100.888 61.0255 101.699H59.6729C59.5359 101.231 59.2791 100.866 58.9024 100.6C58.5258 100.326 58.0549 100.189 57.4985 100.189C56.7794 100.189 56.1973 100.442 55.7521 100.944C55.307 101.437 55.0844 102.14 55.0844 103.054C55.0844 103.98 55.307 104.697 55.7521 105.199C56.1973 105.705 56.7794 105.953 57.4985 105.953C58.0549 105.953 58.5172 105.825 58.8853 105.559C59.262 105.297 59.5231 104.924 59.6729 104.444H61.0255C60.82 105.224 60.4091 105.846 59.7927 106.314C59.1849 106.786 58.4231 107.017 57.4985 107.017C56.7794 107.017 56.1331 106.858 55.5638 106.537C55.0031 106.206 54.5622 105.743 54.2455 105.147C53.9373 104.555 53.7832 103.856 53.7832 103.054Z" fill="white"/>
<path d="M69.688 102.779C69.688 103.02 69.6708 103.277 69.6366 103.551H63.5414C63.5843 104.306 63.8411 104.898 64.3119 105.319C64.7785 105.743 65.3477 105.953 66.024 105.953C66.5719 105.953 67.0256 105.829 67.3937 105.576C67.7575 105.314 68.0144 104.967 68.1642 104.529H69.5339C69.3284 105.276 68.9175 105.876 68.3011 106.331C67.6848 106.79 66.9229 107.017 66.024 107.017C65.2921 107.017 64.6415 106.858 64.0722 106.537C63.4986 106.206 63.0492 105.743 62.7196 105.147C62.3986 104.542 62.2402 103.843 62.2402 103.054C62.2402 102.265 62.3943 101.574 62.7025 100.978C63.0192 100.386 63.4644 99.9271 64.038 99.6054C64.6072 99.288 65.2707 99.125 66.024 99.125C66.7431 99.125 67.3809 99.288 67.9416 99.6054C68.498 99.9142 68.9261 100.352 69.2257 100.909C69.5339 101.458 69.688 102.085 69.688 102.779ZM68.3696 102.505C68.3696 102.025 68.2583 101.613 68.0443 101.27C67.8389 100.918 67.5478 100.648 67.1711 100.463C66.803 100.283 66.4007 100.189 65.9555 100.189C65.3135 100.189 64.7656 100.395 64.3119 100.806C63.8667 101.218 63.6142 101.784 63.5586 102.505H68.3696Z" fill="white"/>
<path d="M72.6244 100.652C72.8726 100.219 73.245 99.8585 73.7373 99.5711C74.2381 99.2751 74.8202 99.125 75.4836 99.125C76.1556 99.125 76.7677 99.2923 77.3156 99.6225C77.872 99.9442 78.3086 100.403 78.6168 100.995C78.9336 101.578 79.0962 102.26 79.0962 103.037C79.0962 103.817 78.9336 104.508 78.6168 105.113C78.3086 105.722 77.872 106.189 77.3156 106.52C76.7677 106.854 76.1556 107.017 75.4836 107.017C74.833 107.017 74.2552 106.876 73.7544 106.588C73.2622 106.292 72.8855 105.928 72.6244 105.49V110.534H71.3574V99.2451H72.6244V100.652ZM77.8121 103.037C77.8121 102.466 77.6923 101.969 77.4526 101.544C77.2214 101.111 76.909 100.785 76.5109 100.566C76.1214 100.339 75.6891 100.223 75.2097 100.223C74.7389 100.223 74.3066 100.339 73.9085 100.566C73.519 100.798 73.2065 101.128 72.9668 101.561C72.7357 101.986 72.6244 102.483 72.6244 103.054C72.6244 103.637 72.7357 104.148 72.9668 104.581C73.2065 105.006 73.519 105.331 73.9085 105.559C74.3066 105.79 74.7389 105.902 75.2097 105.902C75.6891 105.902 76.1214 105.79 76.5109 105.559C76.909 105.331 77.2214 105.006 77.4526 104.581C77.6923 104.148 77.8121 103.633 77.8121 103.037Z" fill="white"/>
<path d="M82.3166 100.292V104.805C82.3166 105.173 82.3937 105.435 82.5563 105.594C82.7147 105.744 82.9886 105.817 83.3782 105.817H84.3027V106.898H83.1727C82.4622 106.898 81.9314 106.739 81.5804 106.417C81.2252 106.087 81.0497 105.551 81.0497 104.805V100.292H80.0566V99.2458H81.0497V97.3242H82.3166V99.2458H84.3027V100.292H82.3166Z" fill="white"/>
<path d="M91.1077 100.292V104.805C91.1077 105.173 91.1847 105.435 91.3474 105.594C91.5057 105.744 91.7797 105.817 92.1692 105.817H93.0937V106.898H91.9637C91.2532 106.898 90.7224 106.739 90.3714 106.417C90.0162 106.087 89.8407 105.551 89.8407 104.805V100.292H88.8477V99.2458H89.8407V97.3242H91.1077V99.2458H93.0937V100.292H91.1077Z" fill="white"/>
<path d="M97.9591 107.017C97.2486 107.017 96.6065 106.858 96.0244 106.537C95.4423 106.206 94.9843 105.743 94.6547 105.147C94.3209 104.542 94.1582 103.843 94.1582 103.054C94.1582 102.278 94.3209 101.591 94.6547 100.995C94.9971 100.39 95.4594 99.9271 96.0415 99.6054C96.6322 99.288 97.2914 99.125 98.0105 99.125C98.7381 99.125 99.3973 99.288 99.9794 99.6054C100.57 99.9271 101.032 100.386 101.366 100.978C101.709 101.574 101.88 102.265 101.88 103.054C101.88 103.843 101.7 104.542 101.349 105.147C101.007 105.743 100.536 106.206 99.9452 106.537C99.3502 106.858 98.6868 107.017 97.9591 107.017ZM97.9591 105.902C98.4128 105.902 98.8409 105.799 99.2432 105.593C99.6413 105.379 99.9623 105.057 100.202 104.632C100.45 104.199 100.579 103.672 100.579 103.054C100.579 102.436 100.459 101.917 100.219 101.493C99.9794 101.072 99.6627 100.755 99.2774 100.549C98.8879 100.335 98.4642 100.223 98.0105 100.223C97.5396 100.223 97.1116 100.335 96.7264 100.549C96.3369 100.755 96.0287 101.072 95.8018 101.493C95.5707 101.917 95.4594 102.436 95.4594 103.054C95.4594 103.684 95.5707 104.216 95.8018 104.65C96.0287 105.074 96.3326 105.387 96.7093 105.593C97.0859 105.799 97.5011 105.902 97.9591 105.902Z" fill="white"/>
<path d="M106.795 103.037C106.795 102.26 106.949 101.578 107.257 100.995C107.574 100.403 108.011 99.9442 108.558 99.6225C109.115 99.2923 109.74 99.125 110.425 99.125C111.084 99.125 111.662 99.2708 112.154 99.5539C112.655 99.8413 113.027 100.202 113.267 100.635V99.2451H114.551V106.897H113.267V105.473C113.014 105.919 112.638 106.292 112.137 106.588C111.645 106.876 111.067 107.017 110.407 107.017C109.723 107.017 109.106 106.854 108.558 106.52C108.011 106.189 107.574 105.722 107.257 105.113C106.949 104.508 106.795 103.817 106.795 103.037ZM113.267 103.054C113.267 102.483 113.147 101.986 112.907 101.561C112.676 101.128 112.364 100.798 111.966 100.566C111.576 100.339 111.144 100.223 110.664 100.223C110.193 100.223 109.761 100.339 109.363 100.566C108.974 100.785 108.665 101.111 108.439 101.544C108.207 101.969 108.096 102.466 108.096 103.037C108.096 103.633 108.207 104.148 108.439 104.581C108.665 105.006 108.974 105.331 109.363 105.559C109.761 105.79 110.193 105.902 110.664 105.902C111.144 105.902 111.576 105.79 111.966 105.559C112.364 105.331 112.676 105.006 112.907 104.581C113.147 104.148 113.267 103.637 113.267 103.054Z" fill="white"/>
<path d="M116.213 103.036C116.213 102.26 116.367 101.578 116.675 100.995C116.992 100.403 117.428 99.944 117.976 99.6223C118.533 99.292 119.158 99.1247 119.843 99.1247C120.446 99.1247 120.998 99.262 121.503 99.5365C122.017 99.811 122.411 100.171 122.685 100.617V96.5684H123.969V106.897H122.685V105.456C122.432 105.915 122.056 106.292 121.555 106.588C121.062 106.875 120.493 107.017 119.843 107.017C119.158 107.017 118.533 106.854 117.976 106.519C117.428 106.189 116.992 105.722 116.675 105.112C116.367 104.508 116.213 103.817 116.213 103.036ZM122.685 103.054C122.685 102.483 122.565 101.986 122.325 101.561C122.094 101.128 121.782 100.798 121.383 100.566C120.994 100.339 120.562 100.223 120.082 100.223C119.611 100.223 119.179 100.339 118.781 100.566C118.392 100.785 118.083 101.111 117.857 101.544C117.625 101.968 117.514 102.466 117.514 103.036C117.514 103.633 117.625 104.147 117.857 104.581C118.083 105.005 118.392 105.331 118.781 105.559C119.179 105.79 119.611 105.902 120.082 105.902C120.562 105.902 120.994 105.79 121.383 105.559C121.782 105.331 122.094 105.005 122.325 104.581C122.565 104.147 122.685 103.637 122.685 103.054Z" fill="white"/>
<path d="M125.631 103.036C125.631 102.26 125.785 101.578 126.093 100.995C126.41 100.403 126.846 99.944 127.394 99.6223C127.951 99.292 128.576 99.1247 129.261 99.1247C129.864 99.1247 130.416 99.262 130.921 99.5365C131.435 99.811 131.829 100.171 132.103 100.617V96.5684H133.387V106.897H132.103V105.456C131.85 105.915 131.473 106.292 130.973 106.588C130.48 106.875 129.911 107.017 129.261 107.017C128.576 107.017 127.951 106.854 127.394 106.519C126.846 106.189 126.41 105.722 126.093 105.112C125.785 104.508 125.631 103.817 125.631 103.036ZM132.103 103.054C132.103 102.483 131.983 101.986 131.743 101.561C131.512 101.128 131.2 100.798 130.801 100.566C130.412 100.339 129.98 100.223 129.5 100.223C129.029 100.223 128.597 100.339 128.199 100.566C127.81 100.785 127.501 101.111 127.274 101.544C127.043 101.968 126.932 102.466 126.932 103.036C126.932 103.633 127.043 104.147 127.274 104.581C127.501 105.005 127.81 105.331 128.199 105.559C128.597 105.79 129.029 105.902 129.5 105.902C129.98 105.902 130.412 105.79 130.801 105.559C131.2 105.331 131.512 105.005 131.743 104.581C131.983 104.147 132.103 103.637 132.103 103.054Z" fill="white"/>
<path d="M140.789 100.292V104.805C140.789 105.173 140.866 105.435 141.029 105.594C141.187 105.744 141.461 105.817 141.851 105.817H142.775V106.898H141.645C140.935 106.898 140.404 106.739 140.053 106.417C139.698 106.087 139.522 105.551 139.522 104.805V100.292H138.529V99.2458H139.522V97.3242H140.789V99.2458H142.775V100.292H140.789Z" fill="white"/>
<path d="M147.641 107.017C146.93 107.017 146.288 106.858 145.706 106.537C145.124 106.206 144.666 105.743 144.336 105.147C144.002 104.542 143.84 103.843 143.84 103.054C143.84 102.278 144.002 101.591 144.336 100.995C144.679 100.39 145.141 99.9271 145.723 99.6054C146.314 99.288 146.973 99.125 147.692 99.125C148.42 99.125 149.079 99.288 149.661 99.6054C150.252 99.9271 150.714 100.386 151.048 100.978C151.39 101.574 151.562 102.265 151.562 103.054C151.562 103.843 151.382 104.542 151.031 105.147C150.688 105.743 150.217 106.206 149.627 106.537C149.032 106.858 148.368 107.017 147.641 107.017ZM147.641 105.902C148.094 105.902 148.522 105.799 148.925 105.593C149.323 105.379 149.644 105.057 149.884 104.632C150.132 104.199 150.26 103.672 150.26 103.054C150.26 102.436 150.14 101.917 149.901 101.493C149.661 101.072 149.344 100.755 148.959 100.549C148.57 100.335 148.146 100.223 147.692 100.223C147.221 100.223 146.793 100.335 146.408 100.549C146.019 100.755 145.71 101.072 145.483 101.493C145.252 101.917 145.141 102.436 145.141 103.054C145.141 103.684 145.252 104.216 145.483 104.65C145.71 105.074 146.014 105.387 146.391 105.593C146.768 105.799 147.183 105.902 147.641 105.902Z" fill="white"/>
<path d="M158.224 100.669C158.485 100.214 158.862 99.841 159.354 99.5537C159.855 99.2706 160.433 99.1247 161.083 99.1247C161.768 99.1247 162.384 99.292 162.932 99.6223C163.48 99.944 163.908 100.403 164.216 100.995C164.533 101.578 164.696 102.26 164.696 103.036C164.696 103.817 164.533 104.508 164.216 105.112C163.908 105.722 163.472 106.189 162.915 106.519C162.367 106.854 161.755 107.017 161.083 107.017C160.42 107.017 159.838 106.875 159.337 106.588C158.845 106.305 158.472 105.936 158.224 105.49V106.897H156.957V96.5684H158.224V100.669ZM163.412 103.036C163.412 102.466 163.292 101.968 163.052 101.544C162.821 101.111 162.509 100.785 162.111 100.566C161.721 100.339 161.289 100.223 160.809 100.223C160.338 100.223 159.906 100.339 159.508 100.566C159.119 100.798 158.806 101.128 158.566 101.561C158.335 101.986 158.224 102.483 158.224 103.054C158.224 103.637 158.335 104.147 158.566 104.581C158.806 105.005 159.119 105.331 159.508 105.559C159.906 105.79 160.338 105.902 160.809 105.902C161.289 105.902 161.721 105.79 162.111 105.559C162.509 105.331 162.821 105.005 163.052 104.581C163.292 104.147 163.412 103.633 163.412 103.036Z" fill="white"/>
<path d="M169.695 107.017C168.985 107.017 168.343 106.858 167.761 106.537C167.179 106.206 166.721 105.743 166.391 105.147C166.057 104.542 165.895 103.843 165.895 103.054C165.895 102.278 166.057 101.591 166.391 100.995C166.733 100.39 167.196 99.9271 167.778 99.6054C168.369 99.288 169.028 99.125 169.747 99.125C170.474 99.125 171.134 99.288 171.716 99.6054C172.306 99.9271 172.769 100.386 173.103 100.978C173.445 101.574 173.616 102.265 173.616 103.054C173.616 103.843 173.436 104.542 173.085 105.147C172.743 105.743 172.272 106.206 171.682 106.537C171.087 106.858 170.423 107.017 169.695 107.017ZM169.695 105.902C170.149 105.902 170.577 105.799 170.98 105.593C171.378 105.379 171.699 105.057 171.938 104.632C172.187 104.199 172.315 103.672 172.315 103.054C172.315 102.436 172.195 101.917 171.955 101.493C171.716 101.072 171.399 100.755 171.014 100.549C170.624 100.335 170.201 100.223 169.747 100.223C169.276 100.223 168.848 100.335 168.463 100.549C168.073 100.755 167.765 101.072 167.538 101.493C167.307 101.917 167.196 102.436 167.196 103.054C167.196 103.684 167.307 104.216 167.538 104.65C167.765 105.074 168.069 105.387 168.446 105.593C168.822 105.799 169.237 105.902 169.695 105.902Z" fill="white"/>
<path d="M174.812 103.037C174.812 102.26 174.967 101.578 175.275 100.995C175.592 100.403 176.028 99.9442 176.576 99.6225C177.132 99.2923 177.757 99.125 178.442 99.125C179.101 99.125 179.679 99.2708 180.171 99.5539C180.672 99.8413 181.045 100.202 181.284 100.635V99.2451H182.568V106.897H181.284V105.473C181.032 105.919 180.655 106.292 180.154 106.588C179.662 106.876 179.084 107.017 178.425 107.017C177.74 107.017 177.124 106.854 176.576 106.52C176.028 106.189 175.592 105.722 175.275 105.113C174.967 104.508 174.812 103.817 174.812 103.037ZM181.284 103.054C181.284 102.483 181.164 101.986 180.925 101.561C180.694 101.128 180.381 100.798 179.983 100.566C179.594 100.339 179.161 100.223 178.682 100.223C178.211 100.223 177.779 100.339 177.381 100.566C176.991 100.785 176.683 101.111 176.456 101.544C176.225 101.969 176.114 102.466 176.114 103.037C176.114 103.633 176.225 104.148 176.456 104.581C176.683 105.006 176.991 105.331 177.381 105.559C177.779 105.79 178.211 105.902 178.682 105.902C179.161 105.902 179.594 105.79 179.983 105.559C180.381 105.331 180.694 105.006 180.925 104.581C181.164 104.148 181.284 103.637 181.284 103.054Z" fill="white"/>
<path d="M185.974 100.48C186.188 100.047 186.505 99.7079 186.916 99.4677C187.335 99.2275 187.844 99.1074 188.439 99.1074V100.411H188.097C186.68 100.411 185.974 101.183 185.974 102.728V106.897H184.707V99.2447H185.974V100.48Z" fill="white"/>
<path d="M189.426 103.036C189.426 102.26 189.58 101.578 189.888 100.995C190.205 100.403 190.641 99.944 191.189 99.6223C191.746 99.292 192.371 99.1247 193.055 99.1247C193.659 99.1247 194.211 99.262 194.716 99.5365C195.23 99.811 195.624 100.171 195.898 100.617V96.5684H197.182V106.897H195.898V105.456C195.645 105.915 195.268 106.292 194.768 106.588C194.275 106.875 193.706 107.017 193.055 107.017C192.371 107.017 191.746 106.854 191.189 106.519C190.641 106.189 190.205 105.722 189.888 105.112C189.58 104.508 189.426 103.817 189.426 103.036ZM195.898 103.054C195.898 102.483 195.778 101.986 195.538 101.561C195.307 101.128 194.994 100.798 194.596 100.566C194.207 100.339 193.775 100.223 193.295 100.223C192.824 100.223 192.392 100.339 191.994 100.566C191.604 100.785 191.296 101.111 191.069 101.544C190.838 101.968 190.727 102.466 190.727 103.036C190.727 103.633 190.838 104.147 191.069 104.581C191.296 105.005 191.604 105.331 191.994 105.559C192.392 105.79 192.824 105.902 193.295 105.902C193.775 105.902 194.207 105.79 194.596 105.559C194.994 105.331 195.307 105.005 195.538 104.581C195.778 104.147 195.898 103.637 195.898 103.054Z" fill="white"/>
<path d="M68.16 155.335H65.198V158.354H63.9995V155.335H61.0547V154.254H63.9995V151.234H65.198V154.254H68.16V155.335Z" fill="#25D366"/>
<path d="M79.8891 157.737H75.6601L74.8726 159.899H73.5371L77.047 150.223H78.5023L82.0121 159.899H80.6767L79.8891 157.737ZM79.5295 156.708L77.766 151.784L76.0197 156.708H79.5295Z" fill="#25D366"/>
<path d="M83.0645 156.038C83.0645 155.262 83.2185 154.58 83.5267 153.997C83.8435 153.405 84.2801 152.946 84.8279 152.624C85.3844 152.294 86.0093 152.127 86.6942 152.127C87.2977 152.127 87.8498 152.264 88.3549 152.538C88.8685 152.813 89.2623 153.173 89.5363 153.619V149.57H90.8204V159.899H89.5363V158.458C89.2837 158.917 88.9071 159.294 88.4063 159.59C87.914 159.877 87.3448 160.019 86.6942 160.019C86.0093 160.019 85.3844 159.856 84.8279 159.521C84.2801 159.191 83.8435 158.723 83.5267 158.114C83.2185 157.51 83.0645 156.819 83.0645 156.038ZM89.5363 156.056C89.5363 155.485 89.4164 154.988 89.1767 154.563C88.9456 154.13 88.6331 153.799 88.2351 153.568C87.8456 153.341 87.4132 153.225 86.9338 153.225C86.463 153.225 86.0307 153.341 85.6326 153.568C85.2431 153.787 84.9349 154.113 84.7081 154.546C84.477 154.97 84.3657 155.468 84.3657 156.038C84.3657 156.635 84.477 157.149 84.7081 157.583C84.9349 158.007 85.2431 158.333 85.6326 158.561C86.0307 158.792 86.463 158.904 86.9338 158.904C87.4132 158.904 87.8456 158.792 88.2351 158.561C88.6331 158.333 88.9456 158.007 89.1767 157.583C89.4164 157.149 89.5363 156.639 89.5363 156.056Z" fill="#25D366"/>
<path d="M92.4824 156.038C92.4824 155.262 92.6365 154.58 92.9447 153.997C93.2614 153.405 93.698 152.946 94.2459 152.624C94.8023 152.294 95.4273 152.127 96.1121 152.127C96.7156 152.127 97.2678 152.264 97.7729 152.538C98.2865 152.813 98.6803 153.173 98.9542 153.619V149.57H100.238V159.899H98.9542V158.458C98.7017 158.917 98.325 159.294 97.8242 159.59C97.332 159.877 96.7627 160.019 96.1121 160.019C95.4273 160.019 94.8023 159.856 94.2459 159.521C93.698 159.191 93.2614 158.723 92.9447 158.114C92.6365 157.51 92.4824 156.819 92.4824 156.038ZM98.9542 156.056C98.9542 155.485 98.8344 154.988 98.5947 154.563C98.3636 154.13 98.0511 153.799 97.653 153.568C97.2635 153.341 96.8312 153.225 96.3518 153.225C95.881 153.225 95.4487 153.341 95.0506 153.568C94.6611 153.787 94.3529 154.113 94.1261 154.546C93.8949 154.97 93.7836 155.468 93.7836 156.038C93.7836 156.635 93.8949 157.149 94.1261 157.583C94.3529 158.007 94.6611 158.333 95.0506 158.561C95.4487 158.792 95.881 158.904 96.3518 158.904C96.8312 158.904 97.2635 158.792 97.653 158.561C98.0511 158.333 98.3636 158.007 98.5947 157.583C98.8344 157.149 98.9542 156.639 98.9542 156.056Z" fill="#25D366"/>
<path d="M107.639 153.292V157.805C107.639 158.173 107.716 158.435 107.879 158.594C108.037 158.744 108.311 158.817 108.7 158.817H109.625V159.898H108.495C107.784 159.898 107.254 159.739 106.903 159.417C106.547 159.087 106.372 158.551 106.372 157.805V153.292H105.379V152.246H106.372V150.324H107.639V152.246H109.625V153.292H107.639Z" fill="#25D366"/>
<path d="M114.492 160.019C113.782 160.019 113.14 159.86 112.558 159.539C111.975 159.208 111.518 158.745 111.188 158.149C110.854 157.544 110.691 156.845 110.691 156.056C110.691 155.28 110.854 154.593 111.188 153.997C111.53 153.392 111.993 152.929 112.575 152.607C113.165 152.29 113.825 152.127 114.544 152.127C115.271 152.127 115.93 152.29 116.513 152.607C117.103 152.929 117.566 153.388 117.899 153.98C118.242 154.576 118.413 155.267 118.413 156.056C118.413 156.845 118.233 157.544 117.882 158.149C117.54 158.745 117.069 159.208 116.478 159.539C115.883 159.86 115.22 160.019 114.492 160.019ZM114.492 158.904C114.946 158.904 115.374 158.801 115.776 158.595C116.174 158.381 116.495 158.059 116.735 157.634C116.983 157.201 117.112 156.674 117.112 156.056C117.112 155.438 116.992 154.919 116.752 154.495C116.513 154.074 116.196 153.757 115.811 153.551C115.421 153.337 114.997 153.225 114.544 153.225C114.073 153.225 113.645 153.337 113.26 153.551C112.87 153.757 112.562 154.074 112.335 154.495C112.104 154.919 111.993 155.438 111.993 156.056C111.993 156.686 112.104 157.218 112.335 157.651C112.562 158.076 112.866 158.389 113.242 158.595C113.619 158.801 114.034 158.904 114.492 158.904Z" fill="#25D366"/>
<path d="M125.074 153.671C125.335 153.216 125.711 152.843 126.204 152.556C126.704 152.273 127.282 152.127 127.933 152.127C128.618 152.127 129.234 152.294 129.782 152.624C130.33 152.946 130.758 153.405 131.066 153.997C131.383 154.58 131.545 155.262 131.545 156.038C131.545 156.819 131.383 157.51 131.066 158.114C130.758 158.723 130.321 159.191 129.765 159.521C129.217 159.856 128.605 160.019 127.933 160.019C127.269 160.019 126.687 159.877 126.186 159.59C125.694 159.307 125.322 158.938 125.074 158.492V159.899H123.807V149.57H125.074V153.671ZM130.261 156.038C130.261 155.468 130.141 154.97 129.902 154.546C129.671 154.113 129.358 153.787 128.96 153.568C128.571 153.341 128.138 153.225 127.659 153.225C127.188 153.225 126.756 153.341 126.358 153.568C125.968 153.799 125.656 154.13 125.416 154.563C125.185 154.988 125.074 155.485 125.074 156.056C125.074 156.639 125.185 157.149 125.416 157.583C125.656 158.007 125.968 158.333 126.358 158.561C126.756 158.792 127.188 158.904 127.659 158.904C128.138 158.904 128.571 158.792 128.96 158.561C129.358 158.333 129.671 158.007 129.902 157.583C130.141 157.149 130.261 156.635 130.261 156.038Z" fill="#25D366"/>
<path d="M136.547 160.019C135.836 160.019 135.194 159.86 134.612 159.539C134.03 159.208 133.572 158.745 133.243 158.149C132.909 157.544 132.746 156.845 132.746 156.056C132.746 155.28 132.909 154.593 133.243 153.997C133.585 153.392 134.047 152.929 134.629 152.607C135.22 152.29 135.879 152.127 136.598 152.127C137.326 152.127 137.985 152.29 138.567 152.607C139.158 152.929 139.62 153.388 139.954 153.98C140.297 154.576 140.468 155.267 140.468 156.056C140.468 156.845 140.288 157.544 139.937 158.149C139.595 158.745 139.124 159.208 138.533 159.539C137.938 159.86 137.275 160.019 136.547 160.019ZM136.547 158.904C137.001 158.904 137.429 158.801 137.831 158.595C138.229 158.381 138.55 158.059 138.79 157.634C139.038 157.201 139.167 156.674 139.167 156.056C139.167 155.438 139.047 154.919 138.807 154.495C138.567 154.074 138.251 153.757 137.865 153.551C137.476 153.337 137.052 153.225 136.598 153.225C136.128 153.225 135.7 153.337 135.314 153.551C134.925 153.757 134.617 154.074 134.39 154.495C134.159 154.919 134.047 155.438 134.047 156.056C134.047 156.686 134.159 157.218 134.39 157.651C134.617 158.076 134.92 158.389 135.297 158.595C135.674 158.801 136.089 158.904 136.547 158.904Z" fill="#25D366"/>
<path d="M141.662 156.039C141.662 155.262 141.816 154.58 142.124 153.997C142.441 153.405 142.878 152.946 143.426 152.625C143.982 152.294 144.607 152.127 145.292 152.127C145.951 152.127 146.529 152.273 147.021 152.556C147.522 152.843 147.894 153.204 148.134 153.637V152.247H149.418V159.899H148.134V158.475C147.881 158.921 147.505 159.294 147.004 159.59C146.512 159.878 145.934 160.019 145.275 160.019C144.59 160.019 143.973 159.856 143.426 159.522C142.878 159.191 142.441 158.724 142.124 158.115C141.816 157.51 141.662 156.819 141.662 156.039ZM148.134 156.056C148.134 155.485 148.014 154.988 147.774 154.563C147.543 154.13 147.231 153.8 146.833 153.568C146.443 153.341 146.011 153.225 145.532 153.225C145.061 153.225 144.628 153.341 144.23 153.568C143.841 153.787 143.533 154.113 143.306 154.546C143.075 154.971 142.963 155.468 142.963 156.039C142.963 156.635 143.075 157.15 143.306 157.583C143.533 158.007 143.841 158.333 144.23 158.561C144.628 158.792 145.061 158.904 145.532 158.904C146.011 158.904 146.443 158.792 146.833 158.561C147.231 158.333 147.543 158.007 147.774 157.583C148.014 157.15 148.134 156.639 148.134 156.056Z" fill="#25D366"/>
<path d="M152.826 153.482C153.04 153.049 153.356 152.71 153.767 152.47C154.187 152.229 154.696 152.109 155.291 152.109V153.413H154.949C153.532 153.413 152.826 154.185 152.826 155.729V159.899H151.559V152.247H152.826V153.482Z" fill="#25D366"/>
<path d="M156.277 156.038C156.277 155.262 156.431 154.58 156.74 153.997C157.056 153.405 157.493 152.946 158.041 152.624C158.597 152.294 159.222 152.127 159.907 152.127C160.511 152.127 161.063 152.264 161.568 152.538C162.081 152.813 162.475 153.173 162.749 153.619V149.57H164.033V159.899H162.749V158.458C162.497 158.917 162.12 159.294 161.619 159.59C161.127 159.877 160.558 160.019 159.907 160.019C159.222 160.019 158.597 159.856 158.041 159.521C157.493 159.191 157.056 158.723 156.74 158.114C156.431 157.51 156.277 156.819 156.277 156.038ZM162.749 156.056C162.749 155.485 162.629 154.988 162.39 154.563C162.158 154.13 161.846 153.799 161.448 153.568C161.058 153.341 160.626 153.225 160.147 153.225C159.676 153.225 159.244 153.341 158.846 153.568C158.456 153.787 158.148 154.113 157.921 154.546C157.69 154.97 157.579 155.468 157.579 156.038C157.579 156.635 157.69 157.149 157.921 157.583C158.148 158.007 158.456 158.333 158.846 158.561C159.244 158.792 159.676 158.904 160.147 158.904C160.626 158.904 161.058 158.792 161.448 158.561C161.846 158.333 162.158 158.007 162.39 157.583C162.629 157.149 162.749 156.639 162.749 156.056Z" fill="#25D366"/>
</g>
<defs>
<linearGradient id="paint0_linear_3240_15660" x1="2.17832e-09" y1="90.83" x2="224.708" y2="90.83" gradientUnits="userSpaceOnUse">
<stop stop-color="white"/>
<stop offset="0.00390625" stop-color="#FEFEFE"/>
<stop offset="0.0078125" stop-color="#FDFDFD"/>
<stop offset="0.0117187" stop-color="#FCFCFC"/>
<stop offset="0.015625" stop-color="#FBFBFB"/>
<stop offset="0.0195312" stop-color="#FAFAFA"/>
<stop offset="0.0234375" stop-color="#F9F9F9"/>
<stop offset="0.0273437" stop-color="#F8F8F8"/>
<stop offset="0.03125" stop-color="#F7F7F7"/>
<stop offset="0.0351562" stop-color="#F6F6F6"/>
<stop offset="0.0390625" stop-color="#F5F5F5"/>
<stop offset="0.0429688" stop-color="#F4F4F4"/>
<stop offset="0.046875" stop-color="#F3F3F3"/>
<stop offset="0.0507812" stop-color="#F2F2F2"/>
<stop offset="0.0546875" stop-color="#F1F1F1"/>
<stop offset="0.0585938" stop-color="#F0F0F0"/>
<stop offset="0.0625" stop-color="#EFEFEF"/>
<stop offset="0.0664062" stop-color="#EEEEEE"/>
<stop offset="0.0703125" stop-color="#EDEDED"/>
<stop offset="0.0742188" stop-color="#ECECEC"/>
<stop offset="0.078125" stop-color="#EBEBEB"/>
<stop offset="0.0820312" stop-color="#EAEAEA"/>
<stop offset="0.0859375" stop-color="#E9E9E9"/>
<stop offset="0.0898438" stop-color="#E8E8E8"/>
<stop offset="0.09375" stop-color="#E7E7E7"/>
<stop offset="0.0976562" stop-color="#E6E6E6"/>
<stop offset="0.101563" stop-color="#E5E5E5"/>
<stop offset="0.105469" stop-color="#E4E4E4"/>
<stop offset="0.109375" stop-color="#E3E3E3"/>
<stop offset="0.113281" stop-color="#E2E2E2"/>
<stop offset="0.117188" stop-color="#E1E1E1"/>
<stop offset="0.121094" stop-color="#E0E0E0"/>
<stop offset="0.125" stop-color="#DFDFDF"/>
<stop offset="0.128906" stop-color="#DEDEDE"/>
<stop offset="0.132812" stop-color="#DDDDDD"/>
<stop offset="0.136719" stop-color="#DCDCDC"/>
<stop offset="0.140625" stop-color="#DBDBDB"/>
<stop offset="0.144531" stop-color="#DADADA"/>
<stop offset="0.148438" stop-color="#D9D9D9"/>
<stop offset="0.152344" stop-color="#D8D8D8"/>
<stop offset="0.15625" stop-color="#D7D7D7"/>
<stop offset="0.160156" stop-color="#D6D6D6"/>
<stop offset="0.164062" stop-color="#D5D5D5"/>
<stop offset="0.167969" stop-color="#D4D4D4"/>
<stop offset="0.171875" stop-color="#D3D3D3"/>
<stop offset="0.175781" stop-color="#D2D2D2"/>
<stop offset="0.179687" stop-color="#D1D1D1"/>
<stop offset="0.183594" stop-color="#D0D0D0"/>
<stop offset="0.1875" stop-color="#CFCFCF"/>
<stop offset="0.191406" stop-color="#CECECE"/>
<stop offset="0.195312" stop-color="#CDCDCD"/>
<stop offset="0.199219" stop-color="#CCCCCC"/>
<stop offset="0.203125" stop-color="#CBCBCB"/>
<stop offset="0.207031" stop-color="#CACACA"/>
<stop offset="0.210938" stop-color="#C9C9C9"/>
<stop offset="0.214844" stop-color="#C8C8C8"/>
<stop offset="0.21875" stop-color="#C7C7C7"/>
<stop offset="0.222656" stop-color="#C6C6C6"/>
<stop offset="0.226562" stop-color="#C5C5C5"/>
<stop offset="0.230469" stop-color="#C4C4C4"/>
<stop offset="0.234375" stop-color="#C3C3C3"/>
<stop offset="0.238281" stop-color="#C2C2C2"/>
<stop offset="0.242187" stop-color="#C1C1C1"/>
<stop offset="0.246094" stop-color="#C0C0C0"/>
<stop offset="0.25" stop-color="#BFBFBF"/>
<stop offset="0.253906" stop-color="#BEBEBE"/>
<stop offset="0.257812" stop-color="#BDBDBD"/>
<stop offset="0.261719" stop-color="#BCBCBC"/>
<stop offset="0.265625" stop-color="#BBBBBB"/>
<stop offset="0.269531" stop-color="#BABABA"/>
<stop offset="0.273437" stop-color="#B9B9B9"/>
<stop offset="0.277344" stop-color="#B8B8B8"/>
<stop offset="0.28125" stop-color="#B7B7B7"/>
<stop offset="0.285156" stop-color="#B6B6B6"/>
<stop offset="0.289062" stop-color="#B5B5B5"/>
<stop offset="0.292969" stop-color="#B4B4B4"/>
<stop offset="0.296875" stop-color="#B3B3B3"/>
<stop offset="0.300781" stop-color="#B2B2B2"/>
<stop offset="0.304687" stop-color="#B1B1B1"/>
<stop offset="0.308594" stop-color="#B0B0B0"/>
<stop offset="0.3125" stop-color="#AFAFAF"/>
<stop offset="0.316406" stop-color="#AEAEAE"/>
<stop offset="0.320312" stop-color="#ADADAD"/>
<stop offset="0.324219" stop-color="#ACACAC"/>
<stop offset="0.328125" stop-color="#ABABAB"/>
<stop offset="0.332031" stop-color="#AAAAAA"/>
<stop offset="0.335938" stop-color="#A9A9A9"/>
<stop offset="0.339844" stop-color="#A8A8A8"/>
<stop offset="0.34375" stop-color="#A7A7A7"/>
<stop offset="0.347656" stop-color="#A6A6A6"/>
<stop offset="0.351562" stop-color="#A5A5A5"/>
<stop offset="0.355469" stop-color="#A4A4A4"/>
<stop offset="0.359375" stop-color="#A3A3A3"/>
<stop offset="0.363281" stop-color="#A2A2A2"/>
<stop offset="0.367187" stop-color="#A1A1A1"/>
<stop offset="0.371094" stop-color="#A0A0A0"/>
<stop offset="0.375" stop-color="#9F9F9F"/>
<stop offset="0.378906" stop-color="#9E9E9E"/>
<stop offset="0.382812" stop-color="#9D9D9D"/>
<stop offset="0.386719" stop-color="#9C9C9C"/>
<stop offset="0.390625" stop-color="#9B9B9B"/>
<stop offset="0.394531" stop-color="#9A9A9A"/>
<stop offset="0.398437" stop-color="#999999"/>
<stop offset="0.402344" stop-color="#999999"/>
<stop offset="0.40625" stop-color="#989898"/>
<stop offset="0.410156" stop-color="#979797"/>
<stop offset="0.414062" stop-color="#969696"/>
<stop offset="0.417969" stop-color="#959595"/>
<stop offset="0.421875" stop-color="#949494"/>
<stop offset="0.425781" stop-color="#939393"/>
<stop offset="0.429687" stop-color="#929292"/>
<stop offset="0.433594" stop-color="#919191"/>
<stop offset="0.4375" stop-color="#909090"/>
<stop offset="0.441406" stop-color="#8F8F8F"/>
<stop offset="0.445312" stop-color="#8E8E8E"/>
<stop offset="0.449219" stop-color="#8D8D8D"/>
<stop offset="0.453125" stop-color="#8C8C8C"/>
<stop offset="0.457031" stop-color="#8B8B8B"/>
<stop offset="0.460937" stop-color="#8A8A8A"/>
<stop offset="0.464844" stop-color="#898989"/>
<stop offset="0.46875" stop-color="#888888"/>
<stop offset="0.472656" stop-color="#878787"/>
<stop offset="0.476562" stop-color="#868686"/>
<stop offset="0.480469" stop-color="#858585"/>
<stop offset="0.484375" stop-color="#848484"/>
<stop offset="0.488281" stop-color="#838383"/>
<stop offset="0.492187" stop-color="#828282"/>
<stop offset="0.496094" stop-color="#818181"/>
<stop offset="0.5" stop-color="#808080"/>
<stop offset="0.503906" stop-color="#7F7F7F"/>
<stop offset="0.507812" stop-color="#7E7E7E"/>
<stop offset="0.511719" stop-color="#7D7D7D"/>
<stop offset="0.515625" stop-color="#7C7C7C"/>
<stop offset="0.519531" stop-color="#7B7B7B"/>
<stop offset="0.523438" stop-color="#7A7A7A"/>
<stop offset="0.527344" stop-color="#797979"/>
<stop offset="0.53125" stop-color="#787878"/>
<stop offset="0.535156" stop-color="#777777"/>
<stop offset="0.539062" stop-color="#767676"/>
<stop offset="0.542969" stop-color="#757575"/>
<stop offset="0.546875" stop-color="#747474"/>
<stop offset="0.550781" stop-color="#737373"/>
<stop offset="0.554688" stop-color="#727272"/>
<stop offset="0.558594" stop-color="#717171"/>
<stop offset="0.5625" stop-color="#707070"/>
<stop offset="0.566406" stop-color="#6F6F6F"/>
<stop offset="0.570312" stop-color="#6E6E6E"/>
<stop offset="0.574219" stop-color="#6D6D6D"/>
<stop offset="0.578125" stop-color="#6C6C6C"/>
<stop offset="0.582031" stop-color="#6B6B6B"/>
<stop offset="0.585938" stop-color="#6A6A6A"/>
<stop offset="0.589844" stop-color="#696969"/>
<stop offset="0.59375" stop-color="#686868"/>
<stop offset="0.597656" stop-color="#676767"/>
<stop offset="0.601562" stop-color="#666666"/>
<stop offset="0.605469" stop-color="#656565"/>
<stop offset="0.609375" stop-color="#646464"/>
<stop offset="0.613281" stop-color="#636363"/>
<stop offset="0.617188" stop-color="#626262"/>
<stop offset="0.621094" stop-color="#616161"/>
<stop offset="0.625" stop-color="#606060"/>
<stop offset="0.628906" stop-color="#5F5F5F"/>
<stop offset="0.632812" stop-color="#5E5E5E"/>
<stop offset="0.636719" stop-color="#5D5D5D"/>
<stop offset="0.640625" stop-color="#5C5C5C"/>
<stop offset="0.644531" stop-color="#5B5B5B"/>
<stop offset="0.648438" stop-color="#5A5A5A"/>
<stop offset="0.652344" stop-color="#595959"/>
<stop offset="0.65625" stop-color="#585858"/>
<stop offset="0.660156" stop-color="#575757"/>
<stop offset="0.664062" stop-color="#565656"/>
<stop offset="0.667969" stop-color="#555555"/>
<stop offset="0.671875" stop-color="#545454"/>
<stop offset="0.675781" stop-color="#535353"/>
<stop offset="0.679688" stop-color="#525252"/>
<stop offset="0.683594" stop-color="#515151"/>
<stop offset="0.6875" stop-color="#505050"/>
<stop offset="0.691406" stop-color="#4F4F4F"/>
<stop offset="0.695312" stop-color="#4E4E4E"/>
<stop offset="0.699219" stop-color="#4D4D4D"/>
<stop offset="0.703125" stop-color="#4C4C4C"/>
<stop offset="0.707031" stop-color="#4B4B4B"/>
<stop offset="0.710938" stop-color="#4A4A4A"/>
<stop offset="0.714844" stop-color="#494949"/>
<stop offset="0.71875" stop-color="#484848"/>
<stop offset="0.722656" stop-color="#474747"/>
<stop offset="0.726563" stop-color="#464646"/>
<stop offset="0.730469" stop-color="#454545"/>
<stop offset="0.734375" stop-color="#444444"/>
<stop offset="0.738281" stop-color="#434343"/>
<stop offset="0.742188" stop-color="#424242"/>
<stop offset="0.746094" stop-color="#414141"/>
<stop offset="0.75" stop-color="#404040"/>
<stop offset="0.753906" stop-color="#3F3F3F"/>
<stop offset="0.757813" stop-color="#3E3E3E"/>
<stop offset="0.761719" stop-color="#3D3D3D"/>
<stop offset="0.765625" stop-color="#3C3C3C"/>
<stop offset="0.769531" stop-color="#3B3B3B"/>
<stop offset="0.773438" stop-color="#3A3A3A"/>
<stop offset="0.777344" stop-color="#393939"/>
<stop offset="0.78125" stop-color="#383838"/>
<stop offset="0.785156" stop-color="#373737"/>
<stop offset="0.789062" stop-color="#363636"/>
<stop offset="0.792969" stop-color="#353535"/>
<stop offset="0.796875" stop-color="#343434"/>
<stop offset="0.800781" stop-color="#333333"/>
<stop offset="0.804688" stop-color="#323232"/>
<stop offset="0.808594" stop-color="#313131"/>
<stop offset="0.8125" stop-color="#303030"/>
<stop offset="0.816406" stop-color="#2F2F2F"/>
<stop offset="0.820312" stop-color="#2E2E2E"/>
<stop offset="0.824219" stop-color="#2D2D2D"/>
<stop offset="0.828125" stop-color="#2C2C2C"/>
<stop offset="0.832031" stop-color="#2B2B2B"/>
<stop offset="0.835938" stop-color="#2A2A2A"/>
<stop offset="0.839844" stop-color="#292929"/>
<stop offset="0.84375" stop-color="#282828"/>
<stop offset="0.847656" stop-color="#272727"/>
<stop offset="0.851562" stop-color="#262626"/>
<stop offset="0.855469" stop-color="#252525"/>
<stop offset="0.859375" stop-color="#242424"/>
<stop offset="0.863281" stop-color="#232323"/>
<stop offset="0.867188" stop-color="#222222"/>
<stop offset="0.871094" stop-color="#212121"/>
<stop offset="0.875" stop-color="#202020"/>
<stop offset="0.878906" stop-color="#1F1F1F"/>
<stop offset="0.882812" stop-color="#1E1E1E"/>
<stop offset="0.886719" stop-color="#1D1D1D"/>
<stop offset="0.890625" stop-color="#1C1C1C"/>
<stop offset="0.894531" stop-color="#1B1B1B"/>
<stop offset="0.898438" stop-color="#1A1A1A"/>
<stop offset="0.902344" stop-color="#191919"/>
<stop offset="0.90625" stop-color="#181818"/>
<stop offset="0.910156" stop-color="#171717"/>
<stop offset="0.914062" stop-color="#161616"/>
<stop offset="0.917969" stop-color="#151515"/>
<stop offset="0.921875" stop-color="#141414"/>
<stop offset="0.925781" stop-color="#131313"/>
<stop offset="0.929688" stop-color="#121212"/>
<stop offset="0.933594" stop-color="#111111"/>
<stop offset="0.9375" stop-color="#101010"/>
<stop offset="0.941406" stop-color="#0F0F0F"/>
<stop offset="0.945312" stop-color="#0E0E0E"/>
<stop offset="0.949219" stop-color="#0D0D0D"/>
<stop offset="0.953125" stop-color="#0C0C0C"/>
<stop offset="0.957031" stop-color="#0B0B0B"/>
<stop offset="0.960938" stop-color="#0A0A0A"/>
<stop offset="0.964844" stop-color="#090909"/>
<stop offset="0.96875" stop-color="#080808"/>
<stop offset="0.972656" stop-color="#070707"/>
<stop offset="0.976562" stop-color="#060606"/>
<stop offset="0.980469" stop-color="#050505"/>
<stop offset="0.984375" stop-color="#040404"/>
<stop offset="0.988281" stop-color="#030303"/>
<stop offset="0.992187" stop-color="#020202"/>
<stop offset="0.996094" stop-color="#010101"/>
<stop offset="1"/>
</linearGradient>
<clipPath id="clip0_3240_15660">
<rect width="226" height="182" fill="white"/>
</clipPath>
</defs>
</svg>
