<svg width="13" height="14" viewBox="0 0 13 14" fill="none" xmlns="http://www.w3.org/2000/svg">
<g clip-path="url(#clip0_1612_24016)">
<path d="M7.19705 6.44662C7.5102 6.44662 7.81632 6.34887 8.0767 6.16573C8.33708 5.9826 8.54002 5.7223 8.65986 5.41775C8.7797 5.11321 8.81105 4.7781 8.74996 4.4548C8.68886 4.1315 8.53807 3.83452 8.31663 3.60144C8.0952 3.36835 7.81308 3.20962 7.50594 3.14531C7.1988 3.081 6.88045 3.114 6.59113 3.24015C6.30182 3.3663 6.05453 3.57992 5.88055 3.854C5.70658 4.12808 5.61371 4.45031 5.61371 4.77995C5.61371 5.22198 5.78053 5.6459 6.07746 5.95846C6.37439 6.27102 6.77712 6.44662 7.19705 6.44662ZM7.19705 4.22439C7.30143 4.22439 7.40347 4.25698 7.49026 4.31802C7.57706 4.37907 7.6447 4.46583 7.68465 4.56735C7.7246 4.66886 7.73505 4.78056 7.71468 4.88833C7.69432 4.9961 7.64405 5.09509 7.57024 5.17279C7.49643 5.25048 7.40239 5.30339 7.30001 5.32483C7.19763 5.34627 7.09151 5.33526 6.99508 5.29322C6.89864 5.25117 6.81621 5.17996 6.75822 5.0886C6.70022 4.99724 6.66927 4.88983 6.66927 4.77995C6.66927 4.63261 6.72487 4.4913 6.82385 4.38711C6.92283 4.28292 7.05707 4.22439 7.19705 4.22439ZM9.36621 6.36884C9.67499 5.90274 9.84054 5.34818 9.84054 4.77995C9.84054 4.21172 9.67499 3.65715 9.36621 3.19106C9.518 3.13962 9.67648 3.11338 9.83594 3.11328C10.2559 3.11328 10.6586 3.28888 10.9555 3.60144C11.2525 3.914 11.4193 4.33792 11.4193 4.77995C11.4193 5.22198 11.2525 5.6459 10.9555 5.95846C10.6586 6.27102 10.2559 6.44662 9.83594 6.44662C9.67648 6.44651 9.518 6.42027 9.36621 6.36884ZM7.19705 7.55773C4.03038 7.55773 4.03038 9.77995 4.03038 9.77995V10.8911H10.3637V9.77995C10.3637 9.77995 10.3637 7.55773 7.19705 7.55773ZM5.08594 9.77995C5.08594 9.61884 5.25483 8.66884 7.19705 8.66884C9.04427 8.66884 9.27649 9.5355 9.30816 9.77995M13.0026 9.77995V10.8911H11.4193V9.77995C11.4069 9.36697 11.3166 8.96072 11.1535 8.5849C10.9904 8.20908 10.7578 7.87123 10.4693 7.59106C13.0026 7.86328 13.0026 9.77995 13.0026 9.77995ZM4.55816 7.00217H2.97483V8.66884H1.91927V7.00217H0.335938V5.89106H1.91927V4.22439H2.97483V5.89106H4.55816V7.00217Z" fill="#939393"/>
</g>
<defs>
<clipPath id="clip0_1612_24016">
<rect width="12.6667" height="13.3333" fill="white" transform="translate(0.335938 0.335938)"/>
</clipPath>
</defs>
</svg>
