<svg width="28" height="28" viewBox="0 0 28 28" fill="none" xmlns="http://www.w3.org/2000/svg">
<g clip-path="url(#clip0_2250_11447)">
<path d="M14.197 13.4466C14.5102 13.4466 14.8163 13.3489 15.0767 13.1657C15.3371 12.9826 15.54 12.7223 15.6599 12.4178C15.7797 12.1132 15.8111 11.7781 15.75 11.4548C15.6889 11.1315 15.5381 10.8345 15.3166 10.6014C15.0952 10.3683 14.8131 10.2096 14.5059 10.1453C14.1988 10.081 13.8804 10.114 13.5911 10.2401C13.3018 10.3663 13.0545 10.5799 12.8806 10.854C12.7066 11.1281 12.6137 11.4503 12.6137 11.7799C12.6137 12.222 12.7805 12.6459 13.0775 12.9585C13.3744 13.271 13.7771 13.4466 14.197 13.4466ZM14.197 11.2244C14.3014 11.2244 14.4035 11.257 14.4903 11.318C14.5771 11.3791 14.6447 11.4658 14.6847 11.5673C14.7246 11.6689 14.735 11.7806 14.7147 11.8883C14.6943 11.9961 14.6441 12.0951 14.5702 12.1728C14.4964 12.2505 14.4024 12.3034 14.3 12.3248C14.1976 12.3463 14.0915 12.3353 13.9951 12.2932C13.8986 12.2512 13.8162 12.18 13.7582 12.0886C13.7002 11.9972 13.6693 11.8898 13.6693 11.7799C13.6693 11.6326 13.7249 11.4913 13.8239 11.3871C13.9228 11.2829 14.0571 11.2244 14.197 11.2244ZM16.3662 13.3688C16.675 12.9027 16.8405 12.3482 16.8405 11.7799C16.8405 11.2117 16.675 10.6572 16.3662 10.1911C16.518 10.1396 16.6765 10.1134 16.8359 10.1133C17.2559 10.1133 17.6586 10.2889 17.9555 10.6014C18.2525 10.914 18.4193 11.3379 18.4193 11.7799C18.4193 12.222 18.2525 12.6459 17.9555 12.9585C17.6586 13.271 17.2559 13.4466 16.8359 13.4466C16.6765 13.4465 16.518 13.4203 16.3662 13.3688ZM14.197 14.5577C11.0304 14.5577 11.0304 16.7799 11.0304 16.7799V17.8911H17.3637V16.7799C17.3637 16.7799 17.3637 14.5577 14.197 14.5577ZM12.0859 16.7799C12.0859 16.6188 12.2548 15.6688 14.197 15.6688C16.0443 15.6688 16.2765 16.5355 16.3082 16.7799M20.0026 16.7799V17.8911H18.4193V16.7799C18.4069 16.367 18.3166 15.9607 18.1535 15.5849C17.9904 15.2091 17.7578 14.8712 17.4693 14.5911C20.0026 14.8633 20.0026 16.7799 20.0026 16.7799ZM11.5582 14.0022H9.97483V15.6688H8.91927V14.0022H7.33594V12.8911H8.91927V11.2244H9.97483V12.8911H11.5582V14.0022Z" fill="#6D717A"/>
</g>
<circle cx="14" cy="14" r="13.5" stroke="#6D717A"/>
<defs>
<clipPath id="clip0_2250_11447">
<rect width="12.6667" height="13.3333" fill="white" transform="translate(7.33594 7.33594)"/>
</clipPath>
</defs>
</svg>
