<svg width="16" height="16" viewBox="0 0 16 16" fill="none" xmlns="http://www.w3.org/2000/svg">
<path d="M3.9987 9.33398H11.9987V8.00065H3.9987V9.33398ZM3.9987 7.33398H11.9987V6.00065H3.9987V7.33398ZM3.9987 5.33398H11.9987V4.00065H3.9987V5.33398ZM2.66536 12.0007C2.2987 12.0007 1.98492 11.8702 1.72403 11.6093C1.46314 11.3484 1.33248 11.0344 1.33203 10.6673V2.66732C1.33203 2.30065 1.4627 1.98687 1.72403 1.72598C1.98536 1.4651 2.29914 1.33443 2.66536 1.33398H13.332C13.6987 1.33398 14.0127 1.46465 14.274 1.72598C14.5354 1.98732 14.6658 2.3011 14.6654 2.66732V14.6673L11.9987 12.0007H2.66536Z" fill="#BDBDBD"/>
</svg>
