<svg width="15" height="16" viewBox="0 0 15 16" fill="none" xmlns="http://www.w3.org/2000/svg">
<path d="M0 13.25C0 14.525 0.974968 15.5 2.24993 15.5H12.7496C14.0245 15.5 14.9995 14.525 14.9995 13.25V7.25H0V13.25ZM12.7496 2H11.2496V1.25C11.2496 0.8 10.9496 0.5 10.4997 0.5C10.0497 0.5 9.74968 0.8 9.74968 1.25V2H5.24983V1.25C5.24983 0.8 4.94984 0.5 4.49985 0.5C4.04987 0.5 3.74988 0.8 3.74988 1.25V2H2.24993C0.974968 2 0 2.975 0 4.25V5.75H14.9995V4.25C14.9995 2.975 14.0245 2 12.7496 2Z" fill="#1B1B1B"/>
</svg>
