<svg width="25" height="26" viewBox="0 0 25 26" fill="none" xmlns="http://www.w3.org/2000/svg">
<path d="M11.457 4.90625H4.16536C3.61283 4.90625 3.08293 5.11941 2.69223 5.49883C2.30152 5.87826 2.08203 6.39287 2.08203 6.92946V21.0919C2.08203 21.6285 2.30152 22.1431 2.69223 22.5226C3.08293 22.902 3.61283 23.1152 4.16536 23.1152H18.7487C19.3012 23.1152 19.8311 22.902 20.2218 22.5226C20.6125 22.1431 20.832 21.6285 20.832 21.0919V14.0107" stroke="#1B1B1B" stroke-width="2" stroke-linecap="round" stroke-linejoin="round"/>
<path d="M19.2695 3.39025C19.6839 2.98781 20.246 2.76172 20.832 2.76172C21.4181 2.76172 21.9801 2.98781 22.3945 3.39025C22.8089 3.79269 23.0417 4.33852 23.0417 4.90766C23.0417 5.4768 22.8089 6.02262 22.3945 6.42507L12.4987 16.0353L8.33203 17.0469L9.3737 13.0005L19.2695 3.39025Z" stroke="#1B1B1B" stroke-width="2" stroke-linecap="round" stroke-linejoin="round"/>
</svg>
