<svg width="21" height="21" viewBox="0 0 21 21" fill="none" xmlns="http://www.w3.org/2000/svg">
<path d="M18.641 9.31062V14.3901C18.641 17.7764 17.8121 18.623 14.4964 18.623H6.20712C2.89142 18.623 2.0625 17.7764 2.0625 14.3901V5.9243C2.0625 2.53799 2.89142 1.69141 6.20712 1.69141H7.45051C8.69389 1.69141 8.96744 2.0639 9.43992 2.7073L10.6833 4.40046C10.9983 4.82375 11.1807 5.07772 12.0096 5.07772H14.4964C17.8121 5.07772 18.641 5.9243 18.641 9.31062Z" stroke="#6D717A" stroke-miterlimit="10"/>
<path d="M7.45312 1.69141H14.9134C16.5713 1.69141 17.4002 2.53799 17.4002 4.23114V5.39942" stroke="#6D717A" stroke-miterlimit="10" stroke-linecap="round" stroke-linejoin="round"/>
<path d="M12.4259 12.6992H8.28125" stroke="#6D717A" stroke-miterlimit="10" stroke-linecap="round" stroke-linejoin="round"/>
</svg>
