<svg width="11" height="18" viewBox="0 0 11 18" fill="none" xmlns="http://www.w3.org/2000/svg">
<path d="M10.142 2.78516C10.5155 2.78516 10.8182 2.42839 10.8182 1.98828V1.45703C10.8182 1.01692 10.5155 0.660156 10.142 0.660156H0.676136C0.302712 0.660156 0 1.01692 0 1.45703V1.98828C0 2.42839 0.302712 2.78516 0.676136 2.78516C0.676136 5.80548 2.11338 8.35445 4.08054 9.16016C2.11338 9.96586 0.676136 12.5148 0.676136 15.5352C0.302712 15.5352 0 15.8919 0 16.332V16.8633C0 17.3034 0.302712 17.6602 0.676136 17.6602H10.142C10.5155 17.6602 10.8182 17.3034 10.8182 16.8633V16.332C10.8182 15.8919 10.5155 15.5352 10.142 15.5352C10.142 12.5148 8.7048 9.96586 6.73764 9.16016C8.7048 8.35445 10.142 5.80548 10.142 2.78516ZM5.40909 7.56641C3.78109 7.56641 2.47917 5.3578 2.47917 2.78516H8.33901C8.33901 5.37317 7.02872 7.56641 5.40909 7.56641Z" fill="#38A312"/>
</svg>
