<svg width="20" height="20" viewBox="0 0 20 20" fill="none" xmlns="http://www.w3.org/2000/svg">
<path d="M8.33203 15.8333C8.33203 16.75 9.08203 17.5 9.9987 17.5C10.9154 17.5 11.6654 16.75 11.6654 15.8333C11.6654 14.9167 10.9154 14.1667 9.9987 14.1667C9.08203 14.1667 8.33203 14.9167 8.33203 15.8333Z" stroke="#666666" stroke-width="1.2"/>
<path d="M8.33203 4.16634C8.33203 5.08301 9.08203 5.83301 9.9987 5.83301C10.9154 5.83301 11.6654 5.08301 11.6654 4.16634C11.6654 3.24967 10.9154 2.49967 9.9987 2.49967C9.08203 2.49967 8.33203 3.24967 8.33203 4.16634Z" stroke="#666666" stroke-width="1.2"/>
<path d="M8.33203 10.0003C8.33203 10.917 9.08203 11.667 9.9987 11.667C10.9154 11.667 11.6654 10.917 11.6654 10.0003C11.6654 9.08366 10.9154 8.33366 9.9987 8.33366C9.08203 8.33366 8.33203 9.08366 8.33203 10.0003Z" stroke="#666666" stroke-width="1.2"/>
</svg>
