<svg width="14" height="14" viewBox="0 0 14 14" fill="none" xmlns="http://www.w3.org/2000/svg">
<path d="M2.9987 8.33301H10.9987V6.99967H2.9987V8.33301ZM2.9987 6.33301H10.9987V4.99967H2.9987V6.33301ZM2.9987 4.33301H10.9987V2.99967H2.9987V4.33301ZM1.66536 10.9997C1.2987 10.9997 0.98492 10.8692 0.724031 10.6083C0.463142 10.3475 0.332476 10.0335 0.332031 9.66634V1.66634C0.332031 1.29967 0.462698 0.985897 0.724031 0.725008C0.985365 0.464119 1.29914 0.333452 1.66536 0.333008H12.332C12.6987 0.333008 13.0127 0.463675 13.274 0.725008C13.5354 0.986341 13.6658 1.30012 13.6654 1.66634V13.6663L10.9987 10.9997H1.66536Z" fill="#BDBDBD"/>
</svg>
