<svg width="20" height="20" viewBox="0 0 20 20" fill="none" xmlns="http://www.w3.org/2000/svg">
<path d="M8.33203 15.8333C8.33203 16.75 9.08203 17.5 9.9987 17.5C10.9154 17.5 11.6654 16.75 11.6654 15.8333C11.6654 14.9167 10.9154 14.1667 9.9987 14.1667C9.08203 14.1667 8.33203 14.9167 8.33203 15.8333Z" stroke="#666666" stroke-width="1.2"/>
<path d="M8.33203 4.16732C8.33203 5.08398 9.08203 5.83398 9.9987 5.83398C10.9154 5.83398 11.6654 5.08398 11.6654 4.16732C11.6654 3.25065 10.9154 2.50065 9.9987 2.50065C9.08203 2.50065 8.33203 3.25065 8.33203 4.16732Z" stroke="#666666" stroke-width="1.2"/>
<path d="M8.33203 9.99935C8.33203 10.916 9.08203 11.666 9.9987 11.666C10.9154 11.666 11.6654 10.916 11.6654 9.99935C11.6654 9.08268 10.9154 8.33268 9.9987 8.33268C9.08203 8.33268 8.33203 9.08268 8.33203 9.99935Z" stroke="#666666" stroke-width="1.2"/>
</svg>
