<svg width="56" height="57" viewBox="0 0 56 57" fill="none" xmlns="http://www.w3.org/2000/svg">
<rect y="0.5" width="56" height="56" rx="28" fill="#F8F8F8"/>
<path d="M21 33.5H20C19.4696 33.5 18.9609 33.2893 18.5858 32.9142C18.2107 32.5391 18 32.0304 18 31.5V21.5C18 20.9696 18.2107 20.4609 18.5858 20.0858C18.9609 19.7107 19.4696 19.5 20 19.5H36C36.5304 19.5 37.0391 19.7107 37.4142 20.0858C37.7893 20.4609 38 20.9696 38 21.5V31.5C38 32.0304 37.7893 32.5391 37.4142 32.9142C37.0391 33.2893 36.5304 33.5 36 33.5H35M28 31.5L33 37.5H23L28 31.5Z" stroke="#6D717A" stroke-width="2" stroke-linecap="round" stroke-linejoin="round"/>
</svg>
