<svg width="19" height="19" viewBox="0 0 19 19" fill="none" xmlns="http://www.w3.org/2000/svg">
<path d="M9.5 19C8.18583 19 6.95083 18.7505 5.795 18.2514C4.63917 17.753 3.63375 17.0763 2.77875 16.2213C1.92375 15.3663 1.24703 14.3608 0.7486 13.205C0.249533 12.0492 0 10.8142 0 9.5C0 8.18583 0.249533 6.95083 0.7486 5.795C1.24703 4.63917 1.92375 3.63375 2.77875 2.77875C3.63375 1.92375 4.63917 1.24672 5.795 0.74765C6.95083 0.249217 8.18583 0 9.5 0C10.8142 0 12.0492 0.249217 13.205 0.74765C14.3608 1.24672 15.3663 1.92375 16.2213 2.77875C17.0763 3.63375 17.753 4.63917 18.2514 5.795C18.7505 6.95083 19 8.18583 19 9.5C19 10.8142 18.7505 12.0492 18.2514 13.205C17.753 14.3608 17.0763 15.3663 16.2213 16.2213C15.3663 17.0763 14.3608 17.753 13.205 18.2514C12.0492 18.7505 10.8142 19 9.5 19ZM9.5 17.1C11.6217 17.1 13.4187 16.3637 14.8912 14.8912C16.3637 13.4187 17.1 11.6217 17.1 9.5C17.1 8.48667 16.91 7.51292 16.53 6.57875C16.15 5.64458 15.6037 4.82125 14.8912 4.10875L9.5 9.5V1.9C7.37833 1.9 5.58125 2.63625 4.10875 4.10875C2.63625 5.58125 1.9 7.37833 1.9 9.5C1.9 11.6217 2.63625 13.4187 4.10875 14.8912C5.58125 16.3637 7.37833 17.1 9.5 17.1Z" fill="#D25B68"/>
</svg>
