<svg width="25" height="24" viewBox="0 0 25 24" fill="none" xmlns="http://www.w3.org/2000/svg">
<path d="M16.086 10.6564L12.136 6.70643C11.9538 6.51783 11.853 6.26523 11.8553 6.00303C11.8576 5.74083 11.9628 5.49002 12.1482 5.30461C12.3336 5.1192 12.5844 5.01403 12.8466 5.01176C13.1088 5.00948 13.3614 5.11027 13.55 5.29243L19.207 10.9494C19.3002 11.0421 19.3741 11.1522 19.4246 11.2736C19.4751 11.3949 19.501 11.525 19.501 11.6564C19.501 11.7878 19.4751 11.918 19.4246 12.0393C19.3741 12.1606 19.3002 12.2708 19.207 12.3634L13.55 18.0204C13.4578 18.1159 13.3474 18.1921 13.2254 18.2445C13.1034 18.2969 12.9722 18.3245 12.8394 18.3257C12.7066 18.3268 12.5749 18.3015 12.452 18.2513C12.3291 18.201 12.2175 18.1267 12.1236 18.0328C12.0297 17.9389 11.9555 17.8273 11.9052 17.7044C11.8549 17.5815 11.8296 17.4498 11.8307 17.317C11.8319 17.1842 11.8595 17.053 11.9119 16.931C11.9643 16.809 12.0405 16.6987 12.136 16.6064L16.086 12.6564H6.5C6.23478 12.6564 5.98043 12.5511 5.79289 12.3635C5.60536 12.176 5.5 11.9216 5.5 11.6564C5.5 11.3912 5.60536 11.1369 5.79289 10.9493C5.98043 10.7618 6.23478 10.6564 6.5 10.6564H16.086V10.6564Z" fill="#38A312"/>
</svg>
