<svg width="24" height="25" viewBox="0 0 24 25" fill="none" xmlns="http://www.w3.org/2000/svg">
<path d="M15.586 11.1564L11.636 7.20643C11.4538 7.01783 11.353 6.76523 11.3553 6.50303C11.3576 6.24083 11.4628 5.99002 11.6482 5.80461C11.8336 5.6192 12.0844 5.51403 12.3466 5.51176C12.6088 5.50948 12.8614 5.61027 13.05 5.79243L18.707 11.4494C18.8002 11.5421 18.8741 11.6522 18.9246 11.7736C18.9751 11.8949 19.001 12.025 19.001 12.1564C19.001 12.2878 18.9751 12.418 18.9246 12.5393C18.8741 12.6606 18.8002 12.7708 18.707 12.8634L13.05 18.5204C12.9578 18.6159 12.8474 18.6921 12.7254 18.7445C12.6034 18.7969 12.4722 18.8245 12.3394 18.8257C12.2066 18.8268 12.0749 18.8015 11.952 18.7513C11.8291 18.701 11.7175 18.6267 11.6236 18.5328C11.5297 18.4389 11.4555 18.3273 11.4052 18.2044C11.3549 18.0815 11.3296 17.9498 11.3307 17.817C11.3319 17.6842 11.3595 17.553 11.4119 17.431C11.4643 17.309 11.5405 17.1987 11.636 17.1064L15.586 13.1564H6C5.73478 13.1564 5.48043 13.0511 5.29289 12.8635C5.10536 12.676 5 12.4216 5 12.1564C5 11.8912 5.10536 11.6369 5.29289 11.4493C5.48043 11.2618 5.73478 11.1564 6 11.1564H15.586Z" fill="#2563EB"/>
</svg>
