<svg width="57" height="57" viewBox="0 0 57 57" fill="none" xmlns="http://www.w3.org/2000/svg">
<rect x="0.5" y="0.5" width="56" height="56" rx="28" fill="#F8F8F8"/>
<path opacity="0.4" d="M34.4981 23.66C34.4381 23.65 34.3681 23.65 34.3081 23.66C32.9281 23.61 31.8281 22.48 31.8281 21.08C31.8281 19.65 32.9781 18.5 34.4081 18.5C35.8381 18.5 36.9881 19.66 36.9881 21.08C36.9781 22.48 35.8781 23.61 34.4981 23.66Z" stroke="#6D717A" stroke-width="1.5" stroke-linecap="round" stroke-linejoin="round"/>
<path opacity="0.4" d="M33.4675 30.9402C34.8375 31.1702 36.3475 30.9302 37.4075 30.2202C38.8175 29.2802 38.8175 27.7402 37.4075 26.8002C36.3375 26.0902 34.8075 25.8502 33.4375 26.0902" stroke="#6D717A" stroke-width="1.5" stroke-linecap="round" stroke-linejoin="round"/>
<path opacity="0.4" d="M22.4666 23.66C22.5266 23.65 22.5966 23.65 22.6566 23.66C24.0366 23.61 25.1366 22.48 25.1366 21.08C25.1366 19.65 23.9866 18.5 22.5566 18.5C21.1266 18.5 19.9766 19.66 19.9766 21.08C19.9866 22.48 21.0866 23.61 22.4666 23.66Z" stroke="#6D717A" stroke-width="1.5" stroke-linecap="round" stroke-linejoin="round"/>
<path opacity="0.4" d="M23.4975 30.9402C22.1275 31.1702 20.6175 30.9302 19.5575 30.2202C18.1475 29.2802 18.1475 27.7402 19.5575 26.8002C20.6275 26.0902 22.1575 25.8502 23.5275 26.0902" stroke="#6D717A" stroke-width="1.5" stroke-linecap="round" stroke-linejoin="round"/>
<path d="M28.4981 31.1288C28.4381 31.1188 28.3681 31.1188 28.3081 31.1288C26.9281 31.0788 25.8281 29.9488 25.8281 28.5488C25.8281 27.1188 26.9781 25.9688 28.4081 25.9688C29.8381 25.9688 30.9881 27.1288 30.9881 28.5488C30.9781 29.9488 29.8781 31.0888 28.4981 31.1288Z" stroke="#6D717A" stroke-width="1.5" stroke-linecap="round" stroke-linejoin="round"/>
<path d="M25.5888 34.2794C24.1788 35.2194 24.1788 36.7594 25.5888 37.6994C27.1888 38.7694 29.8087 38.7694 31.4087 37.6994C32.8187 36.7594 32.8187 35.2194 31.4087 34.2794C29.8187 33.2194 27.1888 33.2194 25.5888 34.2794Z" stroke="#6D717A" stroke-width="1.5" stroke-linecap="round" stroke-linejoin="round"/>
</svg>
