<svg width="24" height="24" viewBox="0 0 24 24" fill="none" xmlns="http://www.w3.org/2000/svg">
<path d="M10.4853 16.7304C10.354 16.7306 10.224 16.705 10.1026 16.6549C9.98131 16.6048 9.87108 16.5312 9.77826 16.4384L5.53626 12.1954C5.44068 12.1032 5.36442 11.9929 5.31193 11.8709C5.25944 11.749 5.23176 11.6178 5.23051 11.485C5.22927 11.3522 5.25448 11.2205 5.30467 11.0976C5.35486 10.9747 5.42904 10.863 5.52286 10.769C5.61669 10.675 5.72829 10.6007 5.85115 10.5503C5.974 10.5 6.10566 10.4746 6.23844 10.4756C6.37122 10.4767 6.50246 10.5042 6.6245 10.5565C6.74654 10.6088 6.85694 10.6849 6.94926 10.7804L10.4843 14.3154L16.8493 7.95238C17.0368 7.76474 17.2911 7.65927 17.5564 7.65918C17.8217 7.65909 18.0761 7.76437 18.2638 7.95188C18.4514 8.13939 18.5569 8.39376 18.557 8.65903C18.5571 8.9243 18.4518 9.17874 18.2643 9.36638L11.1923 16.4384C11.0994 16.5312 10.9892 16.6048 10.8679 16.6549C10.7465 16.705 10.6165 16.7306 10.4853 16.7304Z" fill="#0F172A"/>
</svg>
